<svg width="36" height="50" viewBox="0 0 36 50" fill="none" xmlns="http://www.w3.org/2000/svg">
<g filter="url(#filter0_d)">
<path d="M18 43.2443C17.9338 43.1682 17.8593 43.0824 17.7772 42.9871C17.3972 42.546 16.8535 41.9033 16.2007 41.099C14.8947 39.4897 13.1541 37.2362 11.4145 34.6579C9.67392 32.0781 7.94053 29.1823 6.6438 26.2878C5.34414 23.3867 4.5 20.5238 4.5 18C4.5 14.4196 5.92232 10.9858 8.45406 8.45406C10.9858 5.92232 14.4196 4.5 18 4.5C21.5804 4.5 25.0142 5.92232 27.5459 8.45406C30.0777 10.9858 31.5 14.4196 31.5 18C31.5 20.5238 30.6559 23.3867 29.3562 26.2878C28.0595 29.1823 26.3261 32.0781 24.5855 34.6579C22.8459 37.2362 21.1053 39.4897 19.7993 41.099C19.1465 41.9033 18.6028 42.546 18.2228 42.9871C18.1407 43.0824 18.0662 43.1682 18 43.2443Z" fill="#9951E1" stroke="white"/>
<path d="M18 11.3333C19.5333 11.3333 20.8667 12.6667 20.8667 14.1333C20.8584 14.6504 20.715 15.1562 20.4506 15.6006C20.1863 16.045 19.8103 16.4126 19.36 16.6667C20.0267 16.3333 21 16.3333 21 16.3333C22.6667 16.3333 24 17.5333 24 19.2C24 20.8667 22.6667 22 21 22C21 22 20 22 18.6667 21.3333C18.6667 21.3333 18.4667 22.6667 20 24.6667H16C17.5333 22.6667 17.3333 21.3333 17.3333 21.3333C16 22 15 22 15 22C13.3333 22 12 20.8667 12 19.2C12 17.5333 13.3333 16.3333 15 16.3333C15 16.3333 15.9733 16.3333 16.64 16.6667C16.44 16.5533 15.1933 15.8467 15.1333 14.1333C15.1333 12.6667 16.4667 11.3333 18 11.3333Z" fill="white"/>
</g>
<defs>
<filter id="filter0_d" x="-2" y="-2" width="40" height="56" filterUnits="userSpaceOnUse" color-interpolation-filters="sRGB">
<feFlood flood-opacity="0" result="BackgroundImageFix"/>
<feColorMatrix in="SourceAlpha" type="matrix" values="0 0 0 0 0 0 0 0 0 0 0 0 0 0 0 0 0 0 127 0"/>
<feOffset dy="2"/>
<feGaussianBlur stdDeviation="2"/>
<feColorMatrix type="matrix" values="0 0 0 0 0 0 0 0 0 0 0 0 0 0 0 0 0 0 0.75 0"/>
<feBlend mode="normal" in2="BackgroundImageFix" result="effect1_dropShadow"/>
<feBlend mode="normal" in="SourceGraphic" in2="effect1_dropShadow" result="shape"/>
</filter>
</defs>
</svg>
