<svg width="36" height="50" viewBox="0 0 36 50" fill="none" xmlns="http://www.w3.org/2000/svg">
<g filter="url(#filter0_d)">
<path d="M18 43.2443C17.9338 43.1682 17.8593 43.0824 17.7772 42.9871C17.3972 42.546 16.8535 41.9033 16.2007 41.099C14.8947 39.4897 13.1541 37.2362 11.4145 34.6579C9.67392 32.0781 7.94053 29.1823 6.6438 26.2878C5.34414 23.3867 4.5 20.5238 4.5 18C4.5 14.4196 5.92232 10.9858 8.45406 8.45406C10.9858 5.92232 14.4196 4.5 18 4.5C21.5804 4.5 25.0142 5.92232 27.5459 8.45406C30.0777 10.9858 31.5 14.4196 31.5 18C31.5 20.5238 30.6559 23.3867 29.3562 26.2878C28.0595 29.1823 26.3261 32.0781 24.5855 34.6579C22.8459 37.2362 21.1053 39.4897 19.7993 41.099C19.1465 41.9033 18.6028 42.546 18.2228 42.9871C18.1407 43.0824 18.0662 43.1682 18 43.2443Z" fill="#E19951" stroke="white"/>
<path d="M22.6667 24.6667H13.3333V23.3333H22.6667V24.6667ZM20.6667 22L18.8 15.16C19.0408 15.0551 19.2584 14.9036 19.4405 14.7142C19.6225 14.5249 19.7653 14.3015 19.8607 14.0568C19.9561 13.812 20.0023 13.5509 19.9964 13.2883C19.9906 13.0257 19.9329 12.7669 19.8267 12.5267C19.7219 12.2858 19.5705 12.068 19.3812 11.8859C19.1918 11.7037 18.9684 11.5608 18.7236 11.4654C18.4789 11.37 18.2177 11.3239 17.955 11.3299C17.6924 11.3358 17.4335 11.3936 17.1933 11.5C16.9524 11.6048 16.7347 11.7562 16.5525 11.9455C16.3704 12.1348 16.2275 12.3583 16.1321 12.603C16.0367 12.8478 15.9906 13.109 15.9965 13.3716C16.0025 13.6343 16.0603 13.8931 16.1667 14.1333C16.3667 14.5933 16.7333 14.96 17.1933 15.16L15.3333 22H20.6667Z" fill="white"/>
</g>
<defs>
<filter id="filter0_d" x="-2" y="-2" width="40" height="56" filterUnits="userSpaceOnUse" color-interpolation-filters="sRGB">
<feFlood flood-opacity="0" result="BackgroundImageFix"/>
<feColorMatrix in="SourceAlpha" type="matrix" values="0 0 0 0 0 0 0 0 0 0 0 0 0 0 0 0 0 0 127 0"/>
<feOffset dy="2"/>
<feGaussianBlur stdDeviation="2"/>
<feColorMatrix type="matrix" values="0 0 0 0 0 0 0 0 0 0 0 0 0 0 0 0 0 0 0.75 0"/>
<feBlend mode="normal" in2="BackgroundImageFix" result="effect1_dropShadow"/>
<feBlend mode="normal" in="SourceGraphic" in2="effect1_dropShadow" result="shape"/>
</filter>
</defs>
</svg>
