<svg width="36" height="50" viewBox="0 0 36 50" fill="none" xmlns="http://www.w3.org/2000/svg">
<g filter="url(#filter0_d)">
<path d="M18 43.2443C17.9338 43.1682 17.8593 43.0824 17.7772 42.9871C17.3972 42.546 16.8535 41.9033 16.2007 41.099C14.8947 39.4897 13.1541 37.2362 11.4145 34.6579C9.67392 32.0781 7.94053 29.1823 6.6438 26.2878C5.34414 23.3867 4.5 20.5238 4.5 18C4.5 14.4196 5.92232 10.9858 8.45406 8.45406C10.9858 5.92232 14.4196 4.5 18 4.5C21.5804 4.5 25.0142 5.92232 27.5459 8.45406C30.0777 10.9858 31.5 14.4196 31.5 18C31.5 20.5238 30.6559 23.3867 29.3562 26.2878C28.0595 29.1823 26.3261 32.0781 24.5855 34.6579C22.8459 37.2362 21.1053 39.4897 19.7993 41.099C19.1465 41.9033 18.6028 42.546 18.2228 42.9871C18.1407 43.0824 18.0662 43.1682 18 43.2443Z" fill="#E19951" stroke="white"/>
<path d="M22.6667 24.6667H13.3333V23.3333H22.6667V24.6667ZM21.44 15.5067C22.1461 16.4191 22.5723 17.5168 22.6667 18.6667C22.6667 20.5067 20.58 22 18 22C15.42 22 13.3333 20.5067 13.3333 18.6667C13.3333 17.08 14.8867 14.26 16.9733 13.5133C16.7733 13.2733 16.6667 12.9733 16.6667 12.6667C16.6667 12.313 16.8071 11.9739 17.0572 11.7239C17.3072 11.4738 17.6464 11.3333 18 11.3333C18.3536 11.3333 18.6928 11.4738 18.9428 11.7239C19.1929 11.9739 19.3333 12.313 19.3333 12.6667C19.3333 12.9733 19.2267 13.2733 19.0267 13.5133C19.6 13.7333 20.12 14.0667 20.56 14.4933L17.5267 17.5267L18.4733 18.4733L21.44 15.5067Z" fill="white"/>
</g>
<defs>
<filter id="filter0_d" x="-2" y="-2" width="40" height="56" filterUnits="userSpaceOnUse" color-interpolation-filters="sRGB">
<feFlood flood-opacity="0" result="BackgroundImageFix"/>
<feColorMatrix in="SourceAlpha" type="matrix" values="0 0 0 0 0 0 0 0 0 0 0 0 0 0 0 0 0 0 127 0"/>
<feOffset dy="2"/>
<feGaussianBlur stdDeviation="2"/>
<feColorMatrix type="matrix" values="0 0 0 0 0 0 0 0 0 0 0 0 0 0 0 0 0 0 0.75 0"/>
<feBlend mode="normal" in2="BackgroundImageFix" result="effect1_dropShadow"/>
<feBlend mode="normal" in="SourceGraphic" in2="effect1_dropShadow" result="shape"/>
</filter>
</defs>
</svg>
