<svg width="36" height="50" viewBox="0 0 36 50" fill="none" xmlns="http://www.w3.org/2000/svg">
<g filter="url(#filter0_d)">
<path d="M18 43.2443C17.9338 43.1682 17.8593 43.0824 17.7772 42.9871C17.3972 42.546 16.8535 41.9033 16.2007 41.099C14.8947 39.4897 13.1541 37.2362 11.4145 34.6579C9.67392 32.0781 7.94053 29.1823 6.6438 26.2878C5.34414 23.3867 4.5 20.5238 4.5 18C4.5 14.4196 5.92232 10.9858 8.45406 8.45406C10.9858 5.92232 14.4196 4.5 18 4.5C21.5804 4.5 25.0142 5.92232 27.5459 8.45406C30.0777 10.9858 31.5 14.4196 31.5 18C31.5 20.5238 30.6559 23.3867 29.3562 26.2878C28.0595 29.1823 26.3261 32.0781 24.5855 34.6579C22.8459 37.2362 21.1053 39.4897 19.7993 41.099C19.1465 41.9033 18.6028 42.546 18.2228 42.9871C18.1407 43.0824 18.0662 43.1682 18 43.2443Z" fill="#51E151" stroke="white"/>
<path d="M22 12C22.3536 12 22.6928 12.1405 22.9428 12.3905C23.1929 12.6406 23.3333 12.9797 23.3333 13.3333C23.3333 13.8733 23 14.3333 22.5533 14.5467L21.3333 18.7667V22H14.6667V18.7667L13.4467 14.5467C13 14.3333 12.6667 13.8733 12.6667 13.3333C12.6667 12.9797 12.8071 12.6406 13.0572 12.3905C13.3072 12.1405 13.6464 12 14 12C14.3536 12 14.6928 12.1405 14.9428 12.3905C15.1929 12.6406 15.3333 12.9797 15.3333 13.3333C15.3333 13.6667 15.2133 13.9667 15 14.2L16.8667 16.2333L17.22 13.7467C16.8867 13.5067 16.6667 13.1133 16.6667 12.6667C16.6667 12.313 16.8071 11.9739 17.0572 11.7239C17.3072 11.4738 17.6464 11.3333 18 11.3333C18.3536 11.3333 18.6928 11.4738 18.9428 11.7239C19.1929 11.9739 19.3333 12.313 19.3333 12.6667C19.3333 13.1133 19.1133 13.5067 18.78 13.7467L19.1333 16.2333L20.98 14.1933C20.7774 13.9526 20.6664 13.648 20.6667 13.3333C20.6667 12.9797 20.8071 12.6406 21.0572 12.3905C21.3072 12.1405 21.6464 12 22 12ZM13.3333 23.3333H22.6667V24.6667H13.3333V23.3333Z" fill="white"/>
</g>
<defs>
<filter id="filter0_d" x="-2" y="-2" width="40" height="56" filterUnits="userSpaceOnUse" color-interpolation-filters="sRGB">
<feFlood flood-opacity="0" result="BackgroundImageFix"/>
<feColorMatrix in="SourceAlpha" type="matrix" values="0 0 0 0 0 0 0 0 0 0 0 0 0 0 0 0 0 0 127 0"/>
<feOffset dy="2"/>
<feGaussianBlur stdDeviation="2"/>
<feColorMatrix type="matrix" values="0 0 0 0 0 0 0 0 0 0 0 0 0 0 0 0 0 0 0.75 0"/>
<feBlend mode="normal" in2="BackgroundImageFix" result="effect1_dropShadow"/>
<feBlend mode="normal" in="SourceGraphic" in2="effect1_dropShadow" result="shape"/>
</filter>
</defs>
</svg>
