<svg width="36" height="50" viewBox="0 0 36 50" fill="none" xmlns="http://www.w3.org/2000/svg">
<g filter="url(#filter0_d)">
<path d="M18 43.2443C17.9338 43.1682 17.8593 43.0824 17.7772 42.9871C17.3972 42.546 16.8535 41.9033 16.2007 41.099C14.8947 39.4897 13.1541 37.2362 11.4145 34.6579C9.67392 32.0781 7.94053 29.1823 6.6438 26.2878C5.34414 23.3867 4.5 20.5238 4.5 18C4.5 14.4196 5.92232 10.9858 8.45406 8.45406C10.9858 5.92232 14.4196 4.5 18 4.5C21.5804 4.5 25.0142 5.92232 27.5459 8.45406C30.0777 10.9858 31.5 14.4196 31.5 18C31.5 20.5238 30.6559 23.3867 29.3562 26.2878C28.0595 29.1823 26.3261 32.0781 24.5855 34.6579C22.8459 37.2362 21.1053 39.4897 19.7993 41.099C19.1465 41.9033 18.6028 42.546 18.2228 42.9871C18.1407 43.0824 18.0662 43.1682 18 43.2443Z" fill="#14B866" stroke="white"/>
<path d="M22.6667 24.6667H13.3333V23.3333H22.6667V24.6667ZM21.3333 16.6667C20.3867 16.6667 19.5067 17.18 19.0333 18H18.6667V14.6667H20.6667V13.3333H18.6667V11.3333H17.3333V13.3333H15.3333V14.6667H17.3333V18H16.9667C16.2333 16.7267 14.6 16.2867 13.3333 17.0267C12.7193 17.3779 12.2693 17.9581 12.0819 18.6402C11.8945 19.3224 11.9849 20.051 12.3333 20.6667C12.8267 21.4933 13.7133 22 14.6667 22H21.3333C22.0406 22 22.7188 21.719 23.2189 21.219C23.719 20.7189 24 20.0406 24 19.3333C24 18.6261 23.719 17.9478 23.2189 17.4477C22.7188 16.9476 22.0406 16.6667 21.3333 16.6667Z" fill="white"/>
</g>
<defs>
<filter id="filter0_d" x="-2" y="-2" width="40" height="56" filterUnits="userSpaceOnUse" color-interpolation-filters="sRGB">
<feFlood flood-opacity="0" result="BackgroundImageFix"/>
<feColorMatrix in="SourceAlpha" type="matrix" values="0 0 0 0 0 0 0 0 0 0 0 0 0 0 0 0 0 0 127 0"/>
<feOffset dy="2"/>
<feGaussianBlur stdDeviation="2"/>
<feColorMatrix type="matrix" values="0 0 0 0 0 0 0 0 0 0 0 0 0 0 0 0 0 0 0.75 0"/>
<feBlend mode="normal" in2="BackgroundImageFix" result="effect1_dropShadow"/>
<feBlend mode="normal" in="SourceGraphic" in2="effect1_dropShadow" result="shape"/>
</filter>
</defs>
</svg>
