<svg width="24" height="24" viewBox="0 0 24 24" fill="none" xmlns="http://www.w3.org/2000/svg">
<path d="M12 12V19.88C12.04 20.18 11.94 20.5 11.71 20.71C11.6175 20.8027 11.5076 20.8762 11.3866 20.9264C11.2657 20.9766 11.136 21.0024 11.005 21.0024C10.874 21.0024 10.7444 20.9766 10.6234 20.9264C10.5024 20.8762 10.3925 20.8027 10.3 20.71L8.29001 18.7C8.18094 18.5934 8.09802 18.463 8.04771 18.319C7.9974 18.175 7.98107 18.0213 8.00001 17.87V12H7.97001L2.21001 4.62C2.04762 4.41153 1.97434 4.14726 2.0062 3.88493C2.03805 3.6226 2.17244 3.38355 2.38001 3.22C2.57001 3.08 2.78001 3 3.00001 3H17C17.22 3 17.43 3.08 17.62 3.22C17.8276 3.38355 17.962 3.6226 17.9938 3.88493C18.0257 4.14726 17.9524 4.41153 17.79 4.62L12.03 12H12ZM15 17H18V14H20V17H23V19H20V22H18V19H15V17Z" fill="#337AB7"/>
</svg>
