<svg width="32" height="32" viewBox="0 0 32 32" fill="none" xmlns="http://www.w3.org/2000/svg">
<mask id="path-2-inside-1" fill="white">
<path fill-rule="evenodd" clip-rule="evenodd" d="M18.8911 20.9536C23.5043 19.7134 26.8937 15.5776 26.8937 10.6667C26.8937 4.77563 22.0164 0 16.0001 0C9.98368 0 5.10645 4.77563 5.10645 10.6667C5.10645 15.5776 8.49581 19.7134 13.109 20.9536L16.0001 31.3333L18.8911 20.9536Z"/>
</mask>
<path fill-rule="evenodd" clip-rule="evenodd" d="M18.8911 20.9536C23.5043 19.7134 26.8937 15.5776 26.8937 10.6667C26.8937 4.77563 22.0164 0 16.0001 0C9.98368 0 5.10645 4.77563 5.10645 10.6667C5.10645 15.5776 8.49581 19.7134 13.109 20.9536L16.0001 31.3333L18.8911 20.9536Z" fill="#333333"/>
<path d="M18.8911 20.9536L18.3719 19.0222L17.2705 19.3183L16.9645 20.417L18.8911 20.9536ZM13.109 20.9536L15.0357 20.417L14.7296 19.3183L13.6283 19.0222L13.109 20.9536ZM16.0001 31.3333L14.0734 31.87L16.0001 38.7872L17.9267 31.87L16.0001 31.3333ZM24.8937 10.6667C24.8937 14.6249 22.1588 18.0041 18.3719 19.0222L19.4104 22.885C24.8498 21.4227 28.8937 16.5303 28.8937 10.6667H24.8937ZM16.0001 2C20.9518 2 24.8937 5.91968 24.8937 10.6667H28.8937C28.8937 3.63157 23.0811 -2 16.0001 -2V2ZM7.10645 10.6667C7.10645 5.91968 11.0483 2 16.0001 2V-2C8.91902 -2 3.10645 3.63157 3.10645 10.6667H7.10645ZM13.6283 19.0222C9.84132 18.0041 7.10645 14.6249 7.10645 10.6667H3.10645C3.10645 16.5303 7.1503 21.4227 12.5897 22.885L13.6283 19.0222ZM17.9267 30.7967L15.0357 20.417L11.1823 21.4903L14.0734 31.87L17.9267 30.7967ZM16.9645 20.417L14.0734 30.7967L17.9267 31.87L20.8178 21.4903L16.9645 20.417Z" fill="white" mask="url(#path-2-inside-1)"/>
<path d="M15.0923 6.22224H16.9079C17.1486 6.22224 17.3795 6.31589 17.5498 6.48259C17.72 6.64929 17.8157 6.87538 17.8157 7.11113V8.00001H19.6313C19.872 8.00001 20.1029 8.09366 20.2732 8.26036C20.4434 8.42706 20.5391 8.65316 20.5391 8.8889V13.7778C20.5391 14.0135 20.4434 14.2396 20.2732 14.4063C20.1029 14.573 19.872 14.6667 19.6313 14.6667H12.3689C12.1281 14.6667 11.8972 14.573 11.7269 14.4063C11.5567 14.2396 11.4611 14.0135 11.4611 13.7778V8.8889C11.4611 8.39557 11.865 8.00001 12.3689 8.00001H14.1845V7.11113C14.1845 6.61779 14.5884 6.22224 15.0923 6.22224ZM16.9079 8.00001V7.11113H15.0923V8.00001H16.9079Z" fill="white"/>
</svg>
