<svg width="32" height="32" viewBox="0 0 32 32" fill="none" xmlns="http://www.w3.org/2000/svg">
<mask id="path-2-inside-1" fill="white">
<path fill-rule="evenodd" clip-rule="evenodd" d="M18.8911 20.9536C23.5043 19.7134 26.8937 15.5776 26.8937 10.6667C26.8937 4.77563 22.0164 0 16.0001 0C9.98368 0 5.10645 4.77563 5.10645 10.6667C5.10645 15.5776 8.49581 19.7134 13.109 20.9536L16.0001 31.3333L18.8911 20.9536Z"/>
</mask>
<path fill-rule="evenodd" clip-rule="evenodd" d="M18.8911 20.9536C23.5043 19.7134 26.8937 15.5776 26.8937 10.6667C26.8937 4.77563 22.0164 0 16.0001 0C9.98368 0 5.10645 4.77563 5.10645 10.6667C5.10645 15.5776 8.49581 19.7134 13.109 20.9536L16.0001 31.3333L18.8911 20.9536Z" fill="#5FB93F"/>
<path d="M18.8911 20.9536L18.3719 19.0222L17.2705 19.3183L16.9645 20.417L18.8911 20.9536ZM13.109 20.9536L15.0357 20.417L14.7296 19.3183L13.6283 19.0222L13.109 20.9536ZM16.0001 31.3333L14.0734 31.87L16.0001 38.7872L17.9267 31.87L16.0001 31.3333ZM24.8937 10.6667C24.8937 14.6249 22.1588 18.0041 18.3719 19.0222L19.4104 22.885C24.8498 21.4227 28.8937 16.5303 28.8937 10.6667H24.8937ZM16.0001 2C20.9518 2 24.8937 5.91968 24.8937 10.6667H28.8937C28.8937 3.63157 23.0811 -2 16.0001 -2V2ZM7.10645 10.6667C7.10645 5.91968 11.0483 2 16.0001 2V-2C8.91902 -2 3.10645 3.63157 3.10645 10.6667H7.10645ZM13.6283 19.0222C9.84132 18.0041 7.10645 14.6249 7.10645 10.6667H3.10645C3.10645 16.5303 7.1503 21.4227 12.5897 22.885L13.6283 19.0222ZM17.9267 30.7967L15.0357 20.417L11.1823 21.4903L14.0734 31.87L17.9267 30.7967ZM16.9645 20.417L14.0734 30.7967L17.9267 31.87L20.8178 21.4903L16.9645 20.417Z" fill="white" mask="url(#path-2-inside-1)"/>
<path d="M19.1774 14.0371C18.9667 14.0371 18.7647 13.9551 18.6157 13.8093C18.4668 13.6634 18.3831 13.4656 18.3831 13.2593C18.3831 13.053 18.4668 12.8552 18.6157 12.7093C18.7647 12.5634 18.9667 12.4815 19.1774 12.4815C19.3881 12.4815 19.5901 12.5634 19.7391 12.7093C19.888 12.8552 19.9717 13.053 19.9717 13.2593C19.9717 13.4656 19.888 13.6634 19.7391 13.8093C19.5901 13.9551 19.3881 14.0371 19.1774 14.0371ZM19.9717 9.37039L21.0097 10.6667H18.6479V9.37039H19.9717ZM12.8228 14.0371C12.6121 14.0371 12.4101 13.9551 12.2611 13.8093C12.1122 13.6634 12.0285 13.4656 12.0285 13.2593C12.0285 13.053 12.1122 12.8552 12.2611 12.7093C12.4101 12.5634 12.6121 12.4815 12.8228 12.4815C13.0335 12.4815 13.2355 12.5634 13.3845 12.7093C13.5334 12.8552 13.6171 13.053 13.6171 13.2593C13.6171 13.4656 13.5334 13.6634 13.3845 13.8093C13.2355 13.9551 13.0335 14.0371 12.8228 14.0371ZM20.2365 8.59261H18.6479V6.51854H11.2342C10.6463 6.51854 10.175 6.98002 10.175 7.55558V13.2593H11.2342C11.2342 13.6718 11.4015 14.0675 11.6995 14.3592C11.9974 14.6509 12.4015 14.8148 12.8228 14.8148C13.2441 14.8148 13.6482 14.6509 13.9461 14.3592C14.2441 14.0675 14.4115 13.6718 14.4115 13.2593H17.5888C17.5888 13.6718 17.7561 14.0675 18.0541 14.3592C18.352 14.6509 18.7561 14.8148 19.1774 14.8148C19.5987 14.8148 20.0028 14.6509 20.3008 14.3592C20.5987 14.0675 20.7661 13.6718 20.7661 13.2593H21.8252V10.6667L20.2365 8.59261Z" fill="white"/>
</svg>
