<svg width="32" height="32" viewBox="0 0 32 32" fill="none" xmlns="http://www.w3.org/2000/svg">
<mask id="path-2-inside-1" fill="white">
<path fill-rule="evenodd" clip-rule="evenodd" d="M18.8911 20.9536C23.5043 19.7134 26.8937 15.5776 26.8937 10.6667C26.8937 4.77563 22.0164 0 16.0001 0C9.98368 0 5.10645 4.77563 5.10645 10.6667C5.10645 15.5776 8.49581 19.7134 13.109 20.9536L16.0001 31.3333L18.8911 20.9536Z"/>
</mask>
<path fill-rule="evenodd" clip-rule="evenodd" d="M18.8911 20.9536C23.5043 19.7134 26.8937 15.5776 26.8937 10.6667C26.8937 4.77563 22.0164 0 16.0001 0C9.98368 0 5.10645 4.77563 5.10645 10.6667C5.10645 15.5776 8.49581 19.7134 13.109 20.9536L16.0001 31.3333L18.8911 20.9536Z" fill="#F4C025"/>
<path d="M18.8911 20.9536L18.3719 19.0222L17.2705 19.3183L16.9645 20.417L18.8911 20.9536ZM13.109 20.9536L15.0357 20.417L14.7296 19.3183L13.6283 19.0222L13.109 20.9536ZM16.0001 31.3333L14.0734 31.87L16.0001 38.7872L17.9267 31.87L16.0001 31.3333ZM24.8937 10.6667C24.8937 14.6249 22.1588 18.0041 18.3719 19.0222L19.4104 22.885C24.8498 21.4227 28.8937 16.5303 28.8937 10.6667H24.8937ZM16.0001 2C20.9518 2 24.8937 5.91968 24.8937 10.6667H28.8937C28.8937 3.63157 23.0811 -2 16.0001 -2V2ZM7.10645 10.6667C7.10645 5.91968 11.0483 2 16.0001 2V-2C8.91902 -2 3.10645 3.63157 3.10645 10.6667H7.10645ZM13.6283 19.0222C9.84132 18.0041 7.10645 14.6249 7.10645 10.6667H3.10645C3.10645 16.5303 7.1503 21.4227 12.5897 22.885L13.6283 19.0222ZM17.9267 30.7967L15.0357 20.417L11.1823 21.4903L14.0734 31.87L17.9267 30.7967ZM16.9645 20.417L14.0734 30.7967L17.9267 31.87L20.8178 21.4903L16.9645 20.417Z" fill="#62511D" mask="url(#path-2-inside-1)"/>
<path d="M9.948 7.11106V8.29625H17.2104V7.11106H9.948ZM9.948 9.48143V10.6666H17.2104V9.48143H9.948ZM20.8658 9.55847C20.7811 9.55847 20.6964 9.59402 20.6298 9.65921L20.0246 10.2518L21.2653 11.4666L21.8705 10.874C22.0036 10.7496 22.0036 10.5422 21.8705 10.4177L21.0958 9.65921C21.0663 9.62817 21.0308 9.60325 20.9913 9.58595C20.9518 9.56864 20.9091 9.55929 20.8658 9.55847V9.55847ZM19.6736 10.5955L16 14.1866V15.4074H17.2467L20.9142 11.8103L19.6736 10.5955V10.5955ZM9.948 11.8518V13.037H14.7896V11.8518H9.948Z" fill="#62511D"/>
</svg>
