<svg width="32" height="32" viewBox="0 0 32 32" fill="none" xmlns="http://www.w3.org/2000/svg">
<mask id="path-2-inside-1" fill="white">
<path fill-rule="evenodd" clip-rule="evenodd" d="M18.8911 20.9536C23.5043 19.7134 26.8937 15.5776 26.8937 10.6667C26.8937 4.77563 22.0164 0 16.0001 0C9.98368 0 5.10645 4.77563 5.10645 10.6667C5.10645 15.5776 8.49581 19.7134 13.109 20.9536L16.0001 31.3333L18.8911 20.9536Z"/>
</mask>
<path fill-rule="evenodd" clip-rule="evenodd" d="M18.8911 20.9536C23.5043 19.7134 26.8937 15.5776 26.8937 10.6667C26.8937 4.77563 22.0164 0 16.0001 0C9.98368 0 5.10645 4.77563 5.10645 10.6667C5.10645 15.5776 8.49581 19.7134 13.109 20.9536L16.0001 31.3333L18.8911 20.9536Z" fill="#222222"/>
<path d="M18.8911 20.9536L18.3719 19.0222L17.2705 19.3183L16.9645 20.417L18.8911 20.9536ZM13.109 20.9536L15.0357 20.417L14.7296 19.3183L13.6283 19.0222L13.109 20.9536ZM16.0001 31.3333L14.0734 31.87L16.0001 38.7872L17.9267 31.87L16.0001 31.3333ZM24.8937 10.6667C24.8937 14.6249 22.1588 18.0041 18.3719 19.0222L19.4104 22.885C24.8498 21.4227 28.8937 16.5303 28.8937 10.6667H24.8937ZM16.0001 2C20.9518 2 24.8937 5.91968 24.8937 10.6667H28.8937C28.8937 3.63157 23.0811 -2 16.0001 -2V2ZM7.10645 10.6667C7.10645 5.91968 11.0483 2 16.0001 2V-2C8.91902 -2 3.10645 3.63157 3.10645 10.6667H7.10645ZM13.6283 19.0222C9.84132 18.0041 7.10645 14.6249 7.10645 10.6667H3.10645C3.10645 16.5303 7.1503 21.4227 12.5897 22.885L13.6283 19.0222ZM17.9267 30.7967L15.0357 20.417L11.1823 21.4903L14.0734 31.87L17.9267 30.7967ZM16.9645 20.417L14.0734 30.7967L17.9267 31.87L20.8178 21.4903L16.9645 20.417Z" fill="#DF5D34" mask="url(#path-2-inside-1)"/>
<path d="M16.0001 8.88883C15.5186 8.88883 15.0568 9.07614 14.7163 9.40953C14.3758 9.74293 14.1845 10.1951 14.1845 10.6666C14.1845 11.1381 14.3758 11.5903 14.7163 11.9237C15.0568 12.2571 15.5186 12.4444 16.0001 12.4444C16.4816 12.4444 16.9434 12.2571 17.2839 11.9237C17.6244 11.5903 17.8157 11.1381 17.8157 10.6666C17.8157 10.1951 17.6244 9.74293 17.2839 9.40953C16.9434 9.07614 16.4816 8.88883 16.0001 8.88883ZM16.0001 13.6296C15.1976 13.6296 14.4279 13.3174 13.8604 12.7617C13.2929 12.2061 12.9741 11.4524 12.9741 10.6666C12.9741 9.88079 13.2929 9.12714 13.8604 8.57148C14.4279 8.01582 15.1976 7.70365 16.0001 7.70365C16.8027 7.70365 17.5723 8.01582 18.1398 8.57148C18.7073 9.12714 19.0261 9.88079 19.0261 10.6666C19.0261 11.4524 18.7073 12.2061 18.1398 12.7617C17.5723 13.3174 16.8027 13.6296 16.0001 13.6296V13.6296ZM16.0001 6.22217C12.9741 6.22217 10.3899 8.06513 9.3429 10.6666C10.3899 13.2681 12.9741 15.1111 16.0001 15.1111C19.0261 15.1111 21.6103 13.2681 22.6573 10.6666C21.6103 8.06513 19.0261 6.22217 16.0001 6.22217Z" fill="#DF5D34"/>
</svg>
