<svg width="32" height="32" viewBox="0 0 32 32" fill="none" xmlns="http://www.w3.org/2000/svg">
<mask id="path-2-inside-1" fill="white">
<path fill-rule="evenodd" clip-rule="evenodd" d="M18.8911 20.9536C23.5043 19.7134 26.8937 15.5776 26.8937 10.6667C26.8937 4.77563 22.0164 0 16.0001 0C9.98368 0 5.10645 4.77563 5.10645 10.6667C5.10645 15.5776 8.49581 19.7134 13.109 20.9536L16.0001 31.3333L18.8911 20.9536Z"/>
</mask>
<path fill-rule="evenodd" clip-rule="evenodd" d="M18.8911 20.9536C23.5043 19.7134 26.8937 15.5776 26.8937 10.6667C26.8937 4.77563 22.0164 0 16.0001 0C9.98368 0 5.10645 4.77563 5.10645 10.6667C5.10645 15.5776 8.49581 19.7134 13.109 20.9536L16.0001 31.3333L18.8911 20.9536Z" fill="white"/>
<path d="M18.8911 20.9536L18.3719 19.0222L17.2705 19.3183L16.9645 20.417L18.8911 20.9536ZM13.109 20.9536L15.0357 20.417L14.7296 19.3183L13.6283 19.0222L13.109 20.9536ZM16.0001 31.3333L14.0734 31.87L16.0001 38.7872L17.9267 31.87L16.0001 31.3333ZM24.8937 10.6667C24.8937 14.6249 22.1588 18.0041 18.3719 19.0222L19.4104 22.885C24.8498 21.4227 28.8937 16.5303 28.8937 10.6667H24.8937ZM16.0001 2C20.9518 2 24.8937 5.91968 24.8937 10.6667H28.8937C28.8937 3.63157 23.0811 -2 16.0001 -2V2ZM7.10645 10.6667C7.10645 5.91968 11.0483 2 16.0001 2V-2C8.91902 -2 3.10645 3.63157 3.10645 10.6667H7.10645ZM13.6283 19.0222C9.84132 18.0041 7.10645 14.6249 7.10645 10.6667H3.10645C3.10645 16.5303 7.1503 21.4227 12.5897 22.885L13.6283 19.0222ZM17.9267 30.7967L15.0357 20.417L11.1823 21.4903L14.0734 31.87L17.9267 30.7967ZM16.9645 20.417L14.0734 30.7967L17.9267 31.87L20.8178 21.4903L16.9645 20.417Z" fill="#2F9DDB" mask="url(#path-2-inside-1)"/>
<path d="M10.5533 7.11106H18.4209L20.2365 9.48143H21.4469C22.1187 9.48143 22.6573 10.0088 22.6573 10.6666V12.4444H21.4469C21.4469 12.9159 21.2556 13.3681 20.9151 13.7015C20.5746 14.0349 20.1128 14.2222 19.6313 14.2222C19.1498 14.2222 18.688 14.0349 18.3475 13.7015C18.007 13.3681 17.8157 12.9159 17.8157 12.4444H14.1845C14.1845 12.9159 13.9932 13.3681 13.6527 13.7015C13.3122 14.0349 12.8504 14.2222 12.3689 14.2222C11.8874 14.2222 11.4256 14.0349 11.0851 13.7015C10.7446 13.3681 10.5533 12.9159 10.5533 12.4444H9.3429V8.29625C9.3429 7.63847 9.88152 7.11106 10.5533 7.11106ZM10.2507 7.99995V9.48143H15.0923V7.99995H10.2507ZM16.0001 7.99995V9.48143H19.1108L17.967 7.99995H16.0001ZM12.3689 11.5555C12.1281 11.5555 11.8972 11.6492 11.727 11.8159C11.5567 11.9826 11.4611 12.2086 11.4611 12.4444C11.4611 12.6801 11.5567 12.9062 11.727 13.0729C11.8972 13.2396 12.1281 13.3333 12.3689 13.3333C12.6097 13.3333 12.8406 13.2396 13.0108 13.0729C13.1811 12.9062 13.2767 12.6801 13.2767 12.4444C13.2767 12.2086 13.1811 11.9826 13.0108 11.8159C12.8406 11.6492 12.6097 11.5555 12.3689 11.5555ZM19.6313 11.5555C19.3905 11.5555 19.1596 11.6492 18.9894 11.8159C18.8191 11.9826 18.7235 12.2086 18.7235 12.4444C18.7235 12.6801 18.8191 12.9062 18.9894 13.0729C19.1596 13.2396 19.3905 13.3333 19.6313 13.3333C19.8721 13.3333 20.103 13.2396 20.2732 13.0729C20.4435 12.9062 20.5391 12.6801 20.5391 12.4444C20.5391 12.2086 20.4435 11.9826 20.2732 11.8159C20.103 11.6492 19.8721 11.5555 19.6313 11.5555Z" fill="#2F9DDB"/>
</svg>
