<svg width="32" height="32" viewBox="0 0 32 32" fill="none" xmlns="http://www.w3.org/2000/svg">
<path d="M16.0001 28.5751C15.9928 28.5666 15.9854 28.558 15.9778 28.5493C15.7254 28.2563 15.364 27.8291 14.93 27.2943C14.0614 26.2241 12.9042 24.7258 11.7479 23.012C10.5907 21.2968 9.44061 19.375 8.58138 17.457C7.71922 15.5326 7.16675 13.6488 7.16675 12C7.16675 9.65726 8.0974 7.41047 9.75397 5.7539C11.4105 4.09732 13.6573 3.16667 16.0001 3.16667C18.3428 3.16667 20.5896 4.09732 22.2462 5.7539C23.9028 7.41047 24.8334 9.65726 24.8334 12C24.8334 13.6488 24.2809 15.5326 23.4188 17.457C22.5595 19.375 21.4095 21.2968 20.2523 23.012C19.096 24.7258 17.9387 26.2241 17.0702 27.2943C16.6361 27.8291 16.2747 28.2563 16.0223 28.5493C16.0148 28.558 16.0074 28.5666 16.0001 28.5751Z" fill="#5FB93F" stroke="white"/>
<path d="M18.2223 16C17.729 16 17.3334 16.3956 17.3334 16.8889C17.3334 17.1246 17.4271 17.3507 17.5938 17.5174C17.7605 17.6841 17.9866 17.7778 18.2223 17.7778C18.4581 17.7778 18.6842 17.6841 18.8509 17.5174C19.0176 17.3507 19.1112 17.1246 19.1112 16.8889C19.1112 16.6531 19.0176 16.427 18.8509 16.2603C18.6842 16.0936 18.4581 16 18.2223 16ZM11.1112 8.88889V9.77777H12.0001L13.6001 13.1511L12.9957 14.24C12.929 14.3644 12.889 14.5111 12.889 14.6667C12.889 14.9024 12.9826 15.1285 13.1493 15.2952C13.316 15.4619 13.5421 15.5556 13.7779 15.5556H19.1112V14.6667H13.9645C13.9351 14.6667 13.9068 14.655 13.886 14.6341C13.8651 14.6133 13.8534 14.585 13.8534 14.5556C13.8534 14.5333 13.8579 14.5156 13.8668 14.5022L14.2668 13.7778H17.5779C17.9112 13.7778 18.2045 13.5911 18.3556 13.32L19.9468 10.4444C19.9779 10.3733 20.0001 10.2978 20.0001 10.2222C20.0001 10.1043 19.9533 9.9913 19.8699 9.90795C19.7866 9.8246 19.6735 9.77777 19.5556 9.77777H12.9823L12.5645 8.88889H11.1112ZM13.7779 16C13.2845 16 12.889 16.3956 12.889 16.8889C12.889 17.1246 12.9826 17.3507 13.1493 17.5174C13.316 17.6841 13.5421 17.7778 13.7779 17.7778C14.0136 17.7778 14.2397 17.6841 14.4064 17.5174C14.5731 17.3507 14.6668 17.1246 14.6668 16.8889C14.6668 16.6531 14.5731 16.427 14.4064 16.2603C14.2397 16.0936 14.0136 16 13.7779 16Z" fill="white"/>
</svg>
