<svg width="32" height="32" viewBox="0 0 32 32" fill="none" xmlns="http://www.w3.org/2000/svg">
<path d="M15.6667 28.5751C15.6594 28.5666 15.652 28.558 15.6445 28.5493C15.3921 28.2563 15.0307 27.8291 14.5966 27.2943C13.728 26.2241 12.5708 24.7258 11.4145 23.012C10.2573 21.2968 9.10724 19.375 8.24801 17.457C7.38584 15.5326 6.83337 13.6488 6.83337 12C6.83337 9.65726 7.76403 7.41047 9.4206 5.7539C11.0772 4.09732 13.324 3.16667 15.6667 3.16667C18.0095 3.16667 20.2562 4.09732 21.9128 5.7539C23.5694 7.41047 24.5 9.65726 24.5 12C24.5 13.6488 23.9476 15.5326 23.0854 17.457C22.2262 19.375 21.0761 21.2968 19.9189 23.012C18.7626 24.7258 17.6054 26.2241 16.7368 27.2943C16.3028 27.8291 15.9413 28.2563 15.6889 28.5493C15.6814 28.558 15.674 28.5666 15.6667 28.5751Z" fill="#5FB93F" stroke="white"/>
<circle cx="15.6667" cy="12" r="2.66667" fill="white"/>
</svg>
