<svg width="32" height="32" viewBox="0 0 32 32" fill="none" xmlns="http://www.w3.org/2000/svg">
<path d="M16.0001 28.5751C15.9928 28.5666 15.9854 28.558 15.9778 28.5493C15.7254 28.2563 15.364 27.8291 14.93 27.2943C14.0614 26.2241 12.9042 24.7258 11.7479 23.012C10.5907 21.2968 9.44061 19.375 8.58138 17.457C7.71922 15.5326 7.16675 13.6488 7.16675 12C7.16675 9.65726 8.0974 7.41047 9.75397 5.7539C11.4105 4.09732 13.6573 3.16667 16.0001 3.16667C18.3428 3.16667 20.5896 4.09732 22.2462 5.7539C23.9028 7.41047 24.8334 9.65726 24.8334 12C24.8334 13.6488 24.2809 15.5326 23.4188 17.457C22.5595 19.375 21.4095 21.2968 20.2523 23.012C19.096 24.7258 17.9387 26.2241 17.0702 27.2943C16.6361 27.8291 16.2747 28.2563 16.0223 28.5493C16.0148 28.558 16.0074 28.5666 16.0001 28.5751Z" fill="#F4C025" stroke="white"/>
<circle cx="16" cy="12" r="2.66667" fill="white"/>
</svg>
