<svg width="40" height="55" viewBox="0 0 40 55" fill="none" xmlns="http://www.w3.org/2000/svg">
<g filter="url(#filter0_d)">
<mask id="path-2-inside-1" fill="white">
<path fill-rule="evenodd" clip-rule="evenodd" d="M24.2462 33.4304C31.0219 31.5701 36 25.3664 36 18C36 9.16344 28.8366 2 20 2C11.1634 2 4 9.16344 4 18C4 25.3664 8.97813 31.5701 15.7538 33.4304L20 49L24.2462 33.4304Z"/>
</mask>
<path fill-rule="evenodd" clip-rule="evenodd" d="M24.2462 33.4304C31.0219 31.5701 36 25.3664 36 18C36 9.16344 28.8366 2 20 2C11.1634 2 4 9.16344 4 18C4 25.3664 8.97813 31.5701 15.7538 33.4304L20 49L24.2462 33.4304Z" fill="#333333"/>
<path d="M24.2462 33.4304L23.7167 31.5018L22.6168 31.8038L22.3167 32.9042L24.2462 33.4304ZM15.7538 33.4304L17.6833 32.9042L17.3832 31.8038L16.2833 31.5018L15.7538 33.4304ZM20 49L18.0705 49.5262L20 56.6012L21.9295 49.5262L20 49ZM34 18C34 24.4428 29.6462 29.8738 23.7167 31.5018L24.7758 35.3591C32.3975 33.2664 38 26.29 38 18H34ZM20 4C27.732 4 34 10.268 34 18H38C38 8.05887 29.9411 0 20 0V4ZM6 18C6 10.268 12.268 4 20 4V0C10.0589 0 2 8.05887 2 18H6ZM16.2833 31.5018C10.3538 29.8738 6 24.4428 6 18H2C2 26.29 7.6025 33.2664 15.2242 35.3591L16.2833 31.5018ZM21.9295 48.4738L17.6833 32.9042L13.8242 33.9567L18.0705 49.5262L21.9295 48.4738ZM22.3167 32.9042L18.0705 48.4738L21.9295 49.5262L26.1758 33.9567L22.3167 32.9042Z" fill="white" mask="url(#path-2-inside-1)"/>
<path d="M18.6667 11.3334H21.3334C21.687 11.3334 22.0261 11.4738 22.2762 11.7239C22.5262 11.9739 22.6667 12.3131 22.6667 12.6667V14H25.3334C25.687 14 26.0261 14.1405 26.2762 14.3905C26.5262 14.6406 26.6667 14.9797 26.6667 15.3334V22.6667C26.6667 23.0203 26.5262 23.3595 26.2762 23.6095C26.0261 23.8595 25.687 24 25.3334 24H14.6667C14.3131 24 13.9739 23.8595 13.7239 23.6095C13.4738 23.3595 13.3334 23.0203 13.3334 22.6667V15.3334C13.3334 14.5934 13.9267 14 14.6667 14H17.3334V12.6667C17.3334 11.9267 17.9267 11.3334 18.6667 11.3334ZM21.3334 14V12.6667H18.6667V14H21.3334Z" fill="white"/>
</g>
<defs>
<filter id="filter0_d" x="0" y="0" width="40" height="56" filterUnits="userSpaceOnUse" color-interpolation-filters="sRGB">
<feFlood flood-opacity="0" result="BackgroundImageFix"/>
<feColorMatrix in="SourceAlpha" type="matrix" values="0 0 0 0 0 0 0 0 0 0 0 0 0 0 0 0 0 0 127 0"/>
<feOffset dy="2"/>
<feGaussianBlur stdDeviation="2"/>
<feColorMatrix type="matrix" values="0 0 0 0 0 0 0 0 0 0 0 0 0 0 0 0 0 0 0.75 0"/>
<feBlend mode="normal" in2="BackgroundImageFix" result="effect1_dropShadow"/>
<feBlend mode="normal" in="SourceGraphic" in2="effect1_dropShadow" result="shape"/>
</filter>
</defs>
</svg>
