<svg id="Layer_1" width="40" height="55" data-name="Layer 1" xmlns="http://www.w3.org/2000/svg" viewBox="0 0 38.49 54.93"><defs><style>.cls-1{fill:#f64e60;stroke:#fff;stroke-miterlimit:5.5;stroke-width:1.37px;}.cls-2{fill:#fff;}</style></defs><path class="cls-1" d="M19.25,53.94l-.3-.33c-.52-.6-1.27-1.5-2.17-2.6-1.79-2.21-4.13-5.3-6.58-8.85A78.41,78.41,0,0,1,3.65,30.64a29.14,29.14,0,0,1-3-11.39,18.56,18.56,0,0,1,37.12,0h0a29.29,29.29,0,0,1-2.94,11.39,80.76,80.76,0,0,1-6.56,11.51c-2.39,3.54-4.78,6.64-6.52,8.85-.89,1.1-1.63,2-2.16,2.6Z" transform="translate(0.03 -0.01)"/><path class="cls-2" d="M18.59,22l2.07-6.23a.62.62,0,0,0-.4-.79l-2.4-.8-1.3,3.88-2.37-.78,1.3-3.89L13.1,12.6a.62.62,0,0,0-.79.39L10,20.07a.63.63,0,0,0,.4.79l6.3,2.1a5.6,5.6,0,0,1,1.94-1ZM8,24.69l8.33,2.78a3.75,3.75,0,1,0,6-3L26,13.65h3.48a.63.63,0,0,0,.62-.63V11.77a.62.62,0,0,0-.62-.62H25.08a1.25,1.25,0,0,0-1.19.85L20,23.65a3.72,3.72,0,0,0-2.87,1.45L8.8,22.32a.62.62,0,0,0-.79.39l-.4,1.19A.62.62,0,0,0,8,24.69Zm10.2,2.71a1.88,1.88,0,1,1,1.87,1.87A1.87,1.87,0,0,1,18.21,27.4Z" transform="translate(0.03 -0.01)"/></svg>