<svg width="40" height="55" viewBox="0 0 40 55" fill="none" xmlns="http://www.w3.org/2000/svg">
<g filter="url(#filter0_d)">
<mask id="path-2-inside-1" fill="white">
<path fill-rule="evenodd" clip-rule="evenodd" d="M24.2462 33.4304C31.0219 31.5701 36 25.3664 36 18C36 9.16344 28.8366 2 20 2C11.1634 2 4 9.16344 4 18C4 25.3664 8.97813 31.5701 15.7538 33.4304L20 49L24.2462 33.4304Z"/>
</mask>
<path fill-rule="evenodd" clip-rule="evenodd" d="M24.2462 33.4304C31.0219 31.5701 36 25.3664 36 18C36 9.16344 28.8366 2 20 2C11.1634 2 4 9.16344 4 18C4 25.3664 8.97813 31.5701 15.7538 33.4304L20 49L24.2462 33.4304Z" fill="#5FB93F"/>
<path d="M24.2462 33.4304L23.7167 31.5018L22.6168 31.8038L22.3167 32.9042L24.2462 33.4304ZM15.7538 33.4304L17.6833 32.9042L17.3832 31.8038L16.2833 31.5018L15.7538 33.4304ZM20 49L18.0705 49.5262L20 56.6012L21.9295 49.5262L20 49ZM34 18C34 24.4428 29.6462 29.8738 23.7167 31.5018L24.7758 35.3591C32.3975 33.2664 38 26.29 38 18H34ZM20 4C27.732 4 34 10.268 34 18H38C38 8.05887 29.9411 0 20 0V4ZM6 18C6 10.268 12.268 4 20 4V0C10.0589 0 2 8.05887 2 18H6ZM16.2833 31.5018C10.3538 29.8738 6 24.4428 6 18H2C2 26.29 7.6025 33.2664 15.2242 35.3591L16.2833 31.5018ZM21.9295 48.4738L17.6833 32.9042L13.8242 33.9567L18.0705 49.5262L21.9295 48.4738ZM22.3167 32.9042L18.0705 48.4738L21.9295 49.5262L26.1758 33.9567L22.3167 32.9042Z" fill="white" mask="url(#path-2-inside-1)"/>
<path d="M24.6667 23.0556C24.3573 23.0556 24.0605 22.9327 23.8417 22.7139C23.6229 22.4951 23.5 22.1983 23.5 21.8889C23.5 21.5795 23.6229 21.2828 23.8417 21.064C24.0605 20.8452 24.3573 20.7223 24.6667 20.7223C24.9761 20.7223 25.2728 20.8452 25.4916 21.064C25.7104 21.2828 25.8333 21.5795 25.8333 21.8889C25.8333 22.1983 25.7104 22.4951 25.4916 22.7139C25.2728 22.9327 24.9761 23.0556 24.6667 23.0556ZM25.8333 16.0556L27.3578 18H23.8889V16.0556H25.8333ZM15.3333 23.0556C15.0239 23.0556 14.7272 22.9327 14.5084 22.7139C14.2896 22.4951 14.1667 22.1983 14.1667 21.8889C14.1667 21.5795 14.2896 21.2828 14.5084 21.064C14.7272 20.8452 15.0239 20.7223 15.3333 20.7223C15.6428 20.7223 15.9395 20.8452 16.1583 21.064C16.3771 21.2828 16.5 21.5795 16.5 21.8889C16.5 22.1983 16.3771 22.4951 16.1583 22.7139C15.9395 22.9327 15.6428 23.0556 15.3333 23.0556ZM26.2222 14.8889H23.8889V11.7778H13C12.1367 11.7778 11.4445 12.47 11.4445 13.3334V21.8889H13C13 22.5078 13.2458 23.1013 13.6834 23.5388C14.121 23.9764 14.7145 24.2223 15.3333 24.2223C15.9522 24.2223 16.5457 23.9764 16.9833 23.5388C17.4208 23.1013 17.6667 22.5078 17.6667 21.8889H22.3333C22.3333 22.5078 22.5792 23.1013 23.0168 23.5388C23.4543 23.9764 24.0478 24.2223 24.6667 24.2223C25.2855 24.2223 25.879 23.9764 26.3166 23.5388C26.7542 23.1013 27 22.5078 27 21.8889H28.5556V18L26.2222 14.8889Z" fill="white"/>
</g>
<defs>
<filter id="filter0_d" x="0" y="0" width="40" height="56" filterUnits="userSpaceOnUse" color-interpolation-filters="sRGB">
<feFlood flood-opacity="0" result="BackgroundImageFix"/>
<feColorMatrix in="SourceAlpha" type="matrix" values="0 0 0 0 0 0 0 0 0 0 0 0 0 0 0 0 0 0 127 0"/>
<feOffset dy="2"/>
<feGaussianBlur stdDeviation="2"/>
<feColorMatrix type="matrix" values="0 0 0 0 0 0 0 0 0 0 0 0 0 0 0 0 0 0 0.75 0"/>
<feBlend mode="normal" in2="BackgroundImageFix" result="effect1_dropShadow"/>
<feBlend mode="normal" in="SourceGraphic" in2="effect1_dropShadow" result="shape"/>
</filter>
</defs>
</svg>
