<svg id="Layer_1" width="40" height="55" data-name="Layer 1" xmlns="http://www.w3.org/2000/svg" viewBox="0 0 640 512"><defs><style>.cls-1{fill:#f64e60;}</style></defs><path class="cls-1" d="M6.18,53.9,145,161.22c-.52,5.57-1,11.16-1,16.87,0,111.76,99.79,153.34,146.78,311.82,7.94,28.78,49.44,30.12,58.44,0,15.52-52.34,36.87-92,58.49-125.68l186.82,144.4A16,16,0,0,0,617,505.82l19.64-25.27a16,16,0,0,0-2.81-22.45L45.46,3.37A16,16,0,0,0,23,6.18L3.36,31.45A16,16,0,0,0,6.18,53.9ZM496,178.09C496,79.65,417.28,0,320,0A174,174,0,0,0,203.6,44.7L477.28,256.22C488.69,232.72,496,207.87,496,178.09Z" transform="translate(0 0)"/></svg>