<svg id="Layer_1" width="40" height="55" data-name="Layer 1" xmlns="http://www.w3.org/2000/svg" viewBox="0 0 28 40.01"><defs><style>.cls-1{fill:#4bb543;stroke:#fff;}.cls-2{fill:#fff;}</style></defs><path class="cls-1" d="M18,43.24,17.78,43c-.38-.44-.93-1.09-1.58-1.89-1.31-1.61-3-3.86-4.79-6.44a57.84,57.84,0,0,1-4.77-8.37A21.14,21.14,0,0,1,4.5,18a13.5,13.5,0,1,1,27,0,21.14,21.14,0,0,1-2.14,8.29,57.84,57.84,0,0,1-4.77,8.37c-1.74,2.58-3.48,4.83-4.79,6.44-.65.8-1.2,1.45-1.58,1.89Z" transform="translate(-4 -4)"/><circle class="cls-2" cx="14" cy="14" r="4"/></svg>