<svg width="40" height="55" viewBox="0 0 40 55" fill="none" xmlns="http://www.w3.org/2000/svg">
<g filter="url(#filter0_d)">
<mask id="path-2-inside-1" fill="white">
<path fill-rule="evenodd" clip-rule="evenodd" d="M24.2462 33.4304C31.0219 31.5701 36 25.3664 36 18C36 9.16344 28.8366 2 20 2C11.1634 2 4 9.16344 4 18C4 25.3664 8.97813 31.5701 15.7538 33.4304L20 49L24.2462 33.4304Z"/>
</mask>
<path fill-rule="evenodd" clip-rule="evenodd" d="M24.2462 33.4304C31.0219 31.5701 36 25.3664 36 18C36 9.16344 28.8366 2 20 2C11.1634 2 4 9.16344 4 18C4 25.3664 8.97813 31.5701 15.7538 33.4304L20 49L24.2462 33.4304Z" fill="#F4C025"/>
<path d="M24.2462 33.4304L23.7167 31.5018L22.6168 31.8038L22.3167 32.9042L24.2462 33.4304ZM15.7538 33.4304L17.6833 32.9042L17.3832 31.8038L16.2833 31.5018L15.7538 33.4304ZM20 49L18.0705 49.5262L20 56.6012L21.9295 49.5262L20 49ZM34 18C34 24.4428 29.6462 29.8738 23.7167 31.5018L24.7758 35.3591C32.3975 33.2664 38 26.29 38 18H34ZM20 4C27.732 4 34 10.268 34 18H38C38 8.05887 29.9411 0 20 0V4ZM6 18C6 10.268 12.268 4 20 4V0C10.0589 0 2 8.05887 2 18H6ZM16.2833 31.5018C10.3538 29.8738 6 24.4428 6 18H2C2 26.29 7.6025 33.2664 15.2242 35.3591L16.2833 31.5018ZM21.9295 48.4738L17.6833 32.9042L13.8242 33.9567L18.0705 49.5262L21.9295 48.4738ZM22.3167 32.9042L18.0705 48.4738L21.9295 49.5262L26.1758 33.9567L22.3167 32.9042Z" fill="#62511D" mask="url(#path-2-inside-1)"/>
<path d="M11.1112 12.6666V14.4444H21.7779V12.6666H11.1112ZM11.1112 16.2221V17.9999H21.7779V16.2221H11.1112ZM27.1468 16.3377C27.0223 16.3377 26.8979 16.391 26.8001 16.4888L25.9112 17.3777L27.7334 19.1999L28.6223 18.311C28.8179 18.1244 28.8179 17.8132 28.6223 17.6266L27.4845 16.4888C27.4413 16.4422 27.389 16.4049 27.331 16.3789C27.273 16.3529 27.2103 16.3389 27.1468 16.3377ZM25.3956 17.8932L20.0001 23.2799V25.111H21.8312L27.2179 19.7155L25.3956 17.8932ZM11.1112 19.7777V21.5555H18.2223V19.7777H11.1112Z" fill="#62511D"/>
</g>
<defs>
<filter id="filter0_d" x="0" y="0" width="40" height="56" filterUnits="userSpaceOnUse" color-interpolation-filters="sRGB">
<feFlood flood-opacity="0" result="BackgroundImageFix"/>
<feColorMatrix in="SourceAlpha" type="matrix" values="0 0 0 0 0 0 0 0 0 0 0 0 0 0 0 0 0 0 127 0"/>
<feOffset dy="2"/>
<feGaussianBlur stdDeviation="2"/>
<feColorMatrix type="matrix" values="0 0 0 0 0 0 0 0 0 0 0 0 0 0 0 0 0 0 0.75 0"/>
<feBlend mode="normal" in2="BackgroundImageFix" result="effect1_dropShadow"/>
<feBlend mode="normal" in="SourceGraphic" in2="effect1_dropShadow" result="shape"/>
</filter>
</defs>
</svg>
