<svg id="Layer_1" width="40" height="55" data-name="Layer 1" xmlns="http://www.w3.org/2000/svg" viewBox="0 0 38.49 54.97"><defs><style>.cls-1{fill:#4bb543;stroke:#fff;stroke-miterlimit:5.5;stroke-width:1.37px;}.cls-2{fill:#fff;}</style></defs><path class="cls-1" d="M20,54.13l-.3-.33c-.52-.61-1.28-1.5-2.17-2.6-1.81-2.21-4.13-5.31-6.59-8.85A80.76,80.76,0,0,1,4.38,30.84,29,29,0,0,1,1.44,19.43a18.56,18.56,0,0,1,37.12,0,29.34,29.34,0,0,1-2.94,11.4,80.11,80.11,0,0,1-6.56,11.5c-2.39,3.55-4.78,6.64-6.59,8.86-.89,1.1-1.65,2-2.17,2.59Z" transform="translate(-0.75 -0.19)"/><path class="cls-2" d="M28.34,22.59,30,15.37a.84.84,0,0,0-.81-1H15.53l-.32-1.56a.83.83,0,0,0-.82-.66H10.83A.83.83,0,0,0,10,13v.56a.83.83,0,0,0,.83.83h2.43L15.7,26.27a2,2,0,0,0-1,1.69A1.95,1.95,0,1,0,18,26.57h7.28a1.94,1.94,0,1,0,2.2-.36l.2-.84a.84.84,0,0,0-.82-1H17.57l-.22-1.11H27.52A.84.84,0,0,0,28.34,22.59Z" transform="translate(-0.75 -0.19)"/></svg>