<svg id="Layer_1" width="40" height="55" data-name="Layer 1" xmlns="http://www.w3.org/2000/svg" viewBox="0 0 38.49 54.91"><defs><style>.cls-1{fill:#f64e60;stroke:#fff;stroke-miterlimit:5.5;stroke-width:1.37px;}.cls-2{fill:#fff;}</style></defs><path class="cls-1" d="M20,53.94l-.3-.33c-.52-.6-1.27-1.5-2.17-2.6-1.79-2.21-4.13-5.3-6.58-8.85A78.41,78.41,0,0,1,4.4,30.64a29.14,29.14,0,0,1-3-11.39,18.56,18.56,0,1,1,37.12,0h0a29.33,29.33,0,0,1-2.94,11.39,80.76,80.76,0,0,1-6.56,11.51c-2.39,3.54-4.78,6.64-6.52,8.85-.89,1.1-1.63,2-2.16,2.6Z" transform="translate(-0.75 0)"/><path class="cls-2" d="M28.34,23,30,15.8a.84.84,0,0,0-.81-1H15.53l-.32-1.56a.84.84,0,0,0-.82-.66H10.83a.83.83,0,0,0-.83.83V14a.83.83,0,0,0,.83.83h2.43L15.7,26.7a2,2,0,0,0-1,1.69A1.95,1.95,0,1,0,18,27h7.28a2,2,0,0,0-.59,1.39,1.95,1.95,0,1,0,2.79-1.75l.2-.84a.84.84,0,0,0-.82-1H17.57l-.22-1.11H27.52A.84.84,0,0,0,28.34,23Z" transform="translate(-0.75 0)"/></svg>