<svg id="Layer_1" width="40" height="55" data-name="Layer 1" xmlns="http://www.w3.org/2000/svg" viewBox="0 0 38.49 54.91"><defs><style>.cls-1{fill:#1d5d9b;stroke:#fff;stroke-miterlimit:5.5;stroke-width:1.37px;}.cls-2{fill:#fff;}</style></defs><path class="cls-1" d="M20,54.13l-.3-.33c-.52-.61-1.27-1.5-2.17-2.6C15.74,49,13.4,45.89,11,42.35A78.41,78.41,0,0,1,4.4,30.83a29.19,29.19,0,0,1-3-11.4,18.56,18.56,0,0,1,37.12,0h0a29.34,29.34,0,0,1-2.94,11.4,80.11,80.11,0,0,1-6.56,11.5c-2.39,3.55-4.78,6.64-6.52,8.86-.89,1.1-1.63,2-2.16,2.6Z" transform="translate(-0.75 -0.18)"/><path class="cls-2" d="M28.34,23.38,30,16.16a.83.83,0,0,0-.81-1H15.53l-.32-1.56a.83.83,0,0,0-.82-.66H10.83a.83.83,0,0,0-.83.83v.55a.84.84,0,0,0,.83.84h2.43L15.7,27.06a2,2,0,0,0-1,1.69,1.95,1.95,0,0,0,3.89,0A1.92,1.92,0,0,0,18,27.36h7.28a1.94,1.94,0,1,0,2.2-.36l.2-.84a.84.84,0,0,0-.82-1H17.57L17.35,24H27.52A.84.84,0,0,0,28.34,23.38Z" transform="translate(-0.75 -0.18)"/></svg>