<svg id="Layer_1" width="40" height="55" data-name="Layer 1" xmlns="http://www.w3.org/2000/svg" viewBox="0 0 38.49 54.91"><defs><style>.cls-1{fill:#1d5d9b;stroke:#fff;stroke-miterlimit:5.5;stroke-width:1.37px;}.cls-2{fill:#fff;}</style></defs><path class="cls-1" d="M20,53.94l-.3-.33c-.52-.6-1.27-1.5-2.17-2.6-1.79-2.21-4.13-5.3-6.58-8.85A78.41,78.41,0,0,1,4.4,30.64a29.14,29.14,0,0,1-3-11.39,18.56,18.56,0,1,1,37.12,0h0a29.33,29.33,0,0,1-2.94,11.39,80.76,80.76,0,0,1-6.56,11.51c-2.39,3.54-4.78,6.64-6.52,8.85-.89,1.1-1.63,2-2.16,2.6Z" transform="translate(-0.75 0)"/><path class="cls-2" d="M20,24.48H12.5V18.23H10v10a1.25,1.25,0,0,0,1.25,1.25h10a1.25,1.25,0,0,0,1.25-1.25v-10H20ZM32.29,15,29,10a1.26,1.26,0,0,0-1.05-.55H12.08a1.23,1.23,0,0,0-1,.55L7.71,15a1.25,1.25,0,0,0,1,2h22.5A1.25,1.25,0,0,0,32.29,15ZM27.5,28.85a.63.63,0,0,0,.62.63h1.26a.63.63,0,0,0,.62-.63V18.23H27.5Z" transform="translate(-0.75 0)"/></svg>