<svg id="Layer_1" width="40" height="55" data-name="Layer 1" xmlns="http://www.w3.org/2000/svg" viewBox="0 0 38.49 54.91"><defs><style>.cls-1{fill:#f64e60;stroke:#fff;stroke-miterlimit:5.5;stroke-width:1.37px;}.cls-2{fill:#fff;}</style></defs><path class="cls-1" d="M20,53.94l-.3-.33c-.52-.6-1.27-1.5-2.17-2.6-1.79-2.21-4.13-5.3-6.58-8.85A78.41,78.41,0,0,1,4.4,30.64a29.14,29.14,0,0,1-3-11.39,18.56,18.56,0,1,1,37.12,0h0a29.33,29.33,0,0,1-2.94,11.39,80.76,80.76,0,0,1-6.56,11.51c-2.39,3.54-4.78,6.64-6.52,8.85-.89,1.1-1.63,2-2.16,2.6Z" transform="translate(-0.75 0)"/><path class="cls-2" d="M20,25.43H12.5V19.18H10v10a1.25,1.25,0,0,0,1.25,1.25h10a1.25,1.25,0,0,0,1.25-1.25v-10H20ZM32.29,16,29,11a1.27,1.27,0,0,0-1.05-.56H12.08a1.24,1.24,0,0,0-1,.56L7.71,16a1.26,1.26,0,0,0,1,1.95h22.5A1.26,1.26,0,0,0,32.29,16ZM27.5,29.8a.63.63,0,0,0,.62.63h1.26A.63.63,0,0,0,30,29.8V19.18H27.5Z" transform="translate(-0.75 0)"/></svg>