<svg width="40" height="55" viewBox="0 0 40 55" fill="none" xmlns="http://www.w3.org/2000/svg">
<g filter="url(#filter0_d)">
<mask id="path-2-inside-1" fill="white">
<path fill-rule="evenodd" clip-rule="evenodd" d="M24.2462 33.4304C31.0219 31.5701 36 25.3664 36 18C36 9.16344 28.8366 2 20 2C11.1634 2 4 9.16344 4 18C4 25.3664 8.97813 31.5701 15.7538 33.4304L20 49L24.2462 33.4304Z"/>
</mask>
<path fill-rule="evenodd" clip-rule="evenodd" d="M24.2462 33.4304C31.0219 31.5701 36 25.3664 36 18C36 9.16344 28.8366 2 20 2C11.1634 2 4 9.16344 4 18C4 25.3664 8.97813 31.5701 15.7538 33.4304L20 49L24.2462 33.4304Z" fill="#222222"/>
<path d="M24.2462 33.4304L23.7167 31.5018L22.6168 31.8038L22.3167 32.9042L24.2462 33.4304ZM15.7538 33.4304L17.6833 32.9042L17.3832 31.8038L16.2833 31.5018L15.7538 33.4304ZM20 49L18.0705 49.5262L20 56.6012L21.9295 49.5262L20 49ZM34 18C34 24.4428 29.6462 29.8738 23.7167 31.5018L24.7758 35.3591C32.3975 33.2664 38 26.29 38 18H34ZM20 4C27.732 4 34 10.268 34 18H38C38 8.05887 29.9411 0 20 0V4ZM6 18C6 10.268 12.268 4 20 4V0C10.0589 0 2 8.05887 2 18H6ZM16.2833 31.5018C10.3538 29.8738 6 24.4428 6 18H2C2 26.29 7.6025 33.2664 15.2242 35.3591L16.2833 31.5018ZM21.9295 48.4738L17.6833 32.9042L13.8242 33.9567L18.0705 49.5262L21.9295 48.4738ZM22.3167 32.9042L18.0705 48.4738L21.9295 49.5262L26.1758 33.9567L22.3167 32.9042Z" fill="#DF5D34" mask="url(#path-2-inside-1)"/>
<path d="M20.0001 15.3333C19.2928 15.3333 18.6145 15.6142 18.1144 16.1143C17.6144 16.6144 17.3334 17.2927 17.3334 17.9999C17.3334 18.7072 17.6144 19.3854 18.1144 19.8855C18.6145 20.3856 19.2928 20.6666 20.0001 20.6666C20.7073 20.6666 21.3856 20.3856 21.8857 19.8855C22.3858 19.3854 22.6667 18.7072 22.6667 17.9999C22.6667 17.2927 22.3858 16.6144 21.8857 16.1143C21.3856 15.6142 20.7073 15.3333 20.0001 15.3333ZM20.0001 22.4444C18.8213 22.4444 17.6909 21.9761 16.8574 21.1426C16.0239 20.3091 15.5556 19.1787 15.5556 17.9999C15.5556 16.8212 16.0239 15.6907 16.8574 14.8572C17.6909 14.0237 18.8213 13.5555 20.0001 13.5555C21.1788 13.5555 22.3093 14.0237 23.1428 14.8572C23.9763 15.6907 24.4445 16.8212 24.4445 17.9999C24.4445 19.1787 23.9763 20.3091 23.1428 21.1426C22.3093 21.9761 21.1788 22.4444 20.0001 22.4444ZM20.0001 11.3333C15.5556 11.3333 11.7601 14.0977 10.2223 17.9999C11.7601 21.9021 15.5556 24.6666 20.0001 24.6666C24.4445 24.6666 28.2401 21.9021 29.7778 17.9999C28.2401 14.0977 24.4445 11.3333 20.0001 11.3333Z" fill="#DF5D34"/>
</g>
<defs>
<filter id="filter0_d" x="0" y="0" width="40" height="56" filterUnits="userSpaceOnUse" color-interpolation-filters="sRGB">
<feFlood flood-opacity="0" result="BackgroundImageFix"/>
<feColorMatrix in="SourceAlpha" type="matrix" values="0 0 0 0 0 0 0 0 0 0 0 0 0 0 0 0 0 0 127 0"/>
<feOffset dy="2"/>
<feGaussianBlur stdDeviation="2"/>
<feColorMatrix type="matrix" values="0 0 0 0 0 0 0 0 0 0 0 0 0 0 0 0 0 0 0.75 0"/>
<feBlend mode="normal" in2="BackgroundImageFix" result="effect1_dropShadow"/>
<feBlend mode="normal" in="SourceGraphic" in2="effect1_dropShadow" result="shape"/>
</filter>
</defs>
</svg>
