<svg width="40" height="55" viewBox="0 0 40 55" fill="none" xmlns="http://www.w3.org/2000/svg">
<g filter="url(#filter0_d)">
<mask id="path-2-inside-1" fill="white">
<path fill-rule="evenodd" clip-rule="evenodd" d="M24.2462 33.4304C31.0219 31.5701 36 25.3664 36 18C36 9.16344 28.8366 2 20 2C11.1634 2 4 9.16344 4 18C4 25.3664 8.97813 31.5701 15.7538 33.4304L20 49L24.2462 33.4304Z"/>
</mask>
<path fill-rule="evenodd" clip-rule="evenodd" d="M24.2462 33.4304C31.0219 31.5701 36 25.3664 36 18C36 9.16344 28.8366 2 20 2C11.1634 2 4 9.16344 4 18C4 25.3664 8.97813 31.5701 15.7538 33.4304L20 49L24.2462 33.4304Z" fill="white"/>
<path d="M24.2462 33.4304L23.7167 31.5018L22.6168 31.8038L22.3167 32.9042L24.2462 33.4304ZM15.7538 33.4304L17.6833 32.9042L17.3832 31.8038L16.2833 31.5018L15.7538 33.4304ZM20 49L18.0705 49.5262L20 56.6012L21.9295 49.5262L20 49ZM34 18C34 24.4428 29.6462 29.8738 23.7167 31.5018L24.7758 35.3591C32.3975 33.2664 38 26.29 38 18H34ZM20 4C27.732 4 34 10.268 34 18H38C38 8.05887 29.9411 0 20 0V4ZM6 18C6 10.268 12.268 4 20 4V0C10.0589 0 2 8.05887 2 18H6ZM16.2833 31.5018C10.3538 29.8738 6 24.4428 6 18H2C2 26.29 7.6025 33.2664 15.2242 35.3591L16.2833 31.5018ZM21.9295 48.4738L17.6833 32.9042L13.8242 33.9567L18.0705 49.5262L21.9295 48.4738ZM22.3167 32.9042L18.0705 48.4738L21.9295 49.5262L26.1758 33.9567L22.3167 32.9042Z" fill="#2F9DDB" mask="url(#path-2-inside-1)"/>
<path d="M12.0001 12.6666H23.5556L26.2223 16.2221H28.0001C28.9867 16.2221 29.7778 17.0132 29.7778 17.9999V20.6666H28.0001C28.0001 21.3738 27.7191 22.0521 27.219 22.5522C26.7189 23.0523 26.0406 23.3332 25.3334 23.3332C24.6262 23.3332 23.9479 23.0523 23.4478 22.5522C22.9477 22.0521 22.6667 21.3738 22.6667 20.6666H17.3334C17.3334 21.3738 17.0524 22.0521 16.5524 22.5522C16.0523 23.0523 15.374 23.3332 14.6667 23.3332C13.9595 23.3332 13.2812 23.0523 12.7811 22.5522C12.281 22.0521 12.0001 21.3738 12.0001 20.6666H10.2223V14.4444C10.2223 13.4577 11.0134 12.6666 12.0001 12.6666ZM11.5556 13.9999V16.2221H18.6667V13.9999H11.5556ZM20.0001 13.9999V16.2221H24.569L22.889 13.9999H20.0001ZM14.6667 19.3332C14.3131 19.3332 13.974 19.4737 13.7239 19.7238C13.4739 19.9738 13.3334 20.313 13.3334 20.6666C13.3334 21.0202 13.4739 21.3593 13.7239 21.6094C13.974 21.8594 14.3131 21.9999 14.6667 21.9999C15.0204 21.9999 15.3595 21.8594 15.6095 21.6094C15.8596 21.3593 16.0001 21.0202 16.0001 20.6666C16.0001 20.313 15.8596 19.9738 15.6095 19.7238C15.3595 19.4737 15.0204 19.3332 14.6667 19.3332ZM25.3334 19.3332C24.9798 19.3332 24.6406 19.4737 24.3906 19.7238C24.1405 19.9738 24.0001 20.313 24.0001 20.6666C24.0001 21.0202 24.1405 21.3593 24.3906 21.6094C24.6406 21.8594 24.9798 21.9999 25.3334 21.9999C25.687 21.9999 26.0262 21.8594 26.2762 21.6094C26.5263 21.3593 26.6667 21.0202 26.6667 20.6666C26.6667 20.313 26.5263 19.9738 26.2762 19.7238C26.0262 19.4737 25.687 19.3332 25.3334 19.3332Z" fill="#2F9DDB"/>
</g>
<defs>
<filter id="filter0_d" x="0" y="0" width="40" height="56" filterUnits="userSpaceOnUse" color-interpolation-filters="sRGB">
<feFlood flood-opacity="0" result="BackgroundImageFix"/>
<feColorMatrix in="SourceAlpha" type="matrix" values="0 0 0 0 0 0 0 0 0 0 0 0 0 0 0 0 0 0 127 0"/>
<feOffset dy="2"/>
<feGaussianBlur stdDeviation="2"/>
<feColorMatrix type="matrix" values="0 0 0 0 0 0 0 0 0 0 0 0 0 0 0 0 0 0 0.75 0"/>
<feBlend mode="normal" in2="BackgroundImageFix" result="effect1_dropShadow"/>
<feBlend mode="normal" in="SourceGraphic" in2="effect1_dropShadow" result="shape"/>
</filter>
</defs>
</svg>
