<svg width="36" height="50" viewBox="0 0 36 50" fill="none" xmlns="http://www.w3.org/2000/svg">
<g filter="url(#filter0_d)">
<path d="M18 43.2443C17.9338 43.1682 17.8593 43.0824 17.7772 42.9871C17.3972 42.546 16.8535 41.9033 16.2007 41.099C14.8947 39.4897 13.1541 37.2362 11.4145 34.6579C9.67392 32.0781 7.94053 29.1823 6.6438 26.2878C5.34414 23.3867 4.5 20.5238 4.5 18C4.5 14.4196 5.92232 10.9858 8.45406 8.45406C10.9858 5.92232 14.4196 4.5 18 4.5C21.5804 4.5 25.0142 5.92232 27.5459 8.45406C30.0777 10.9858 31.5 14.4196 31.5 18C31.5 20.5238 30.6559 23.3867 29.3562 26.2878C28.0595 29.1823 26.3261 32.0781 24.5855 34.6579C22.8459 37.2362 21.1053 39.4897 19.7993 41.099C19.1465 41.9033 18.6028 42.546 18.2228 42.9871C18.1407 43.0824 18.0662 43.1682 18 43.2443Z" fill="#5FB93F" stroke="white"/>
<path d="M21.3333 24C20.5933 24 20 24.5933 20 25.3333C20 25.687 20.1404 26.0261 20.3905 26.2761C20.6405 26.5262 20.9797 26.6667 21.3333 26.6667C21.6869 26.6667 22.0261 26.5262 22.2761 26.2761C22.5261 26.0261 22.6666 25.687 22.6666 25.3333C22.6666 24.9797 22.5261 24.6406 22.2761 24.3905C22.0261 24.1405 21.6869 24 21.3333 24ZM10.6666 13.3333V14.6667H12L14.4 19.7267L13.4933 21.36C13.3933 21.5467 13.3333 21.7667 13.3333 22C13.3333 22.3536 13.4738 22.6928 13.7238 22.9428C13.9739 23.1929 14.313 23.3333 14.6666 23.3333H22.6666V22H14.9466C14.9024 22 14.86 21.9824 14.8288 21.9512C14.7975 21.9199 14.78 21.8775 14.78 21.8333C14.78 21.8 14.7866 21.7733 14.8 21.7533L15.4 20.6667H20.3666C20.8666 20.6667 21.3066 20.3867 21.5333 19.98L23.92 15.6667C23.9666 15.56 24 15.4467 24 15.3333C24 15.1565 23.9297 14.987 23.8047 14.8619C23.6797 14.7369 23.5101 14.6667 23.3333 14.6667H13.4733L12.8466 13.3333H10.6666ZM14.6666 24C13.9266 24 13.3333 24.5933 13.3333 25.3333C13.3333 25.687 13.4738 26.0261 13.7238 26.2761C13.9739 26.5262 14.313 26.6667 14.6666 26.6667C15.0202 26.6667 15.3594 26.5262 15.6094 26.2761C15.8595 26.0261 16 25.687 16 25.3333C16 24.9797 15.8595 24.6406 15.6094 24.3905C15.3594 24.1405 15.0202 24 14.6666 24Z" fill="white"/>
</g>
<defs>
<filter id="filter0_d" x="-2" y="-2" width="40" height="56" filterUnits="userSpaceOnUse" color-interpolation-filters="sRGB">
<feFlood flood-opacity="0" result="BackgroundImageFix"/>
<feColorMatrix in="SourceAlpha" type="matrix" values="0 0 0 0 0 0 0 0 0 0 0 0 0 0 0 0 0 0 127 0"/>
<feOffset dy="2"/>
<feGaussianBlur stdDeviation="2"/>
<feColorMatrix type="matrix" values="0 0 0 0 0 0 0 0 0 0 0 0 0 0 0 0 0 0 0.75 0"/>
<feBlend mode="normal" in2="BackgroundImageFix" result="effect1_dropShadow"/>
<feBlend mode="normal" in="SourceGraphic" in2="effect1_dropShadow" result="shape"/>
</filter>
</defs>
</svg>
