<svg id="Layer_1" width="40" height="55" data-name="Layer 1" xmlns="http://www.w3.org/2000/svg" viewBox="0 0 28 40.01"><defs><style>.cls-1{fill:#4bb543;stroke:#fff;}.cls-2{fill:#fff;}</style></defs><path class="cls-1" d="M18.15,43.24,17.93,43c-.38-.44-.92-1.09-1.58-1.89-1.3-1.61-3-3.86-4.78-6.44A56.92,56.92,0,0,1,6.8,26.29,21.16,21.16,0,0,1,4.65,18a13.5,13.5,0,1,1,27,0,21.14,21.14,0,0,1-2.14,8.29,57.84,57.84,0,0,1-4.77,8.37C23,37.24,21.26,39.49,20,41.1c-.65.8-1.19,1.45-1.57,1.89Z" transform="translate(-4.15 -4)"/><path class="cls-2" d="M20,13.83a1.8,1.8,0,1,0-1.8-1.8A1.8,1.8,0,0,0,20,13.83Zm3.54,5.59L22.62,19l-.36-1.1A4.1,4.1,0,0,0,18.43,15a8.25,8.25,0,0,0-3.5,1,3.55,3.55,0,0,0-1.87,1.73l-.25.51a1.22,1.22,0,0,0,.53,1.61,1.2,1.2,0,0,0,1.6-.54l.25-.51a1.21,1.21,0,0,1,.62-.58l1-.4-.57,2.27a2.45,2.45,0,0,0,.56,2.21l2.25,2.45a2.45,2.45,0,0,1,.56,1l.68,2.75a1.2,1.2,0,0,0,2.33-.58l-.83-3.34a2.4,2.4,0,0,0-.56-1L19.52,21.7l.65-2.58.2.62a2.44,2.44,0,0,0,1.19,1.39l.88.44A1.17,1.17,0,0,0,24,21a1.21,1.21,0,0,0-.54-1.61ZM14.91,24.7a2.28,2.28,0,0,1-.53.8L12.5,27.38a1.22,1.22,0,0,0,0,1.7,1.2,1.2,0,0,0,1.7,0l2.23-2.23a2.38,2.38,0,0,0,.53-.8l.51-1.27c-2.08-2.26-1.46-1.57-1.78-2Z" transform="translate(-4.15 -4)"/></svg>