<svg width="181" height="188" viewBox="0 0 181 188" fill="none" xmlns="http://www.w3.org/2000/svg">
<path d="M175.827 147.58C175.786 147.049 175.673 146.538 175.488 146.048C175.303 145.557 175.016 145.128 174.626 144.76C174.236 144.392 173.702 144.107 173.025 143.902C172.347 143.698 171.516 143.596 170.53 143.596C169.504 143.596 168.652 143.708 167.975 143.933C167.297 144.158 166.763 144.454 166.374 144.822C165.983 145.189 165.706 145.588 165.542 146.017C165.378 146.447 165.295 146.886 165.295 147.335V160.333V160.639V168.242C165.378 167.792 165.573 167.465 165.881 167.261C166.189 167.057 166.507 166.913 166.835 166.832C167.492 166.627 168.17 166.392 168.868 166.127C169.566 165.861 170.222 165.626 170.838 165.421C171.577 165.176 172.276 164.931 172.932 164.686C173.466 164.482 173.959 164.195 174.41 163.827C174.78 163.5 175.108 163.082 175.396 162.571C175.683 162.06 175.827 161.416 175.827 160.639V160.333V147.58ZM181 160.333V161.743C181 163.296 180.61 164.706 179.83 165.973C179.049 167.241 177.9 168.139 176.381 168.671C175.642 168.916 174.801 169.202 173.856 169.529C172.912 169.856 171.998 170.173 171.116 170.479C170.233 170.786 169.463 171.062 168.806 171.307C168.149 171.553 167.739 171.696 167.574 171.737C167.41 171.818 167.205 171.93 166.958 172.074C166.712 172.217 166.466 172.431 166.219 172.717C165.973 173.003 165.757 173.33 165.573 173.698C165.388 174.066 165.295 174.495 165.295 174.986V176.089V188H160.061V146.355C160.061 144.27 160.954 142.523 162.617 141.112C164.279 139.702 166.917 138.997 170.53 138.997C172.378 138.997 173.959 139.191 175.273 139.579C176.586 139.968 177.674 140.499 178.537 141.174C179.399 141.848 180.025 142.635 180.415 143.534C180.805 144.433 181 145.394 181 146.415V147.887V160.333ZM154.025 163.398V164.502C154.025 164.992 153.943 165.647 153.779 166.464C153.615 167.281 153.184 168.099 152.486 168.916C151.788 169.734 150.741 170.439 149.345 171.031C147.949 171.624 146.019 171.921 143.556 171.921C141.092 171.921 139.163 171.624 137.767 171.031C136.371 170.439 135.324 169.734 134.626 168.916C133.928 168.099 133.497 167.271 133.333 166.433C133.168 165.595 133.086 164.952 133.086 164.502V163.827V139.427H138.26V162.908H138.321V163.521C138.321 163.848 138.372 164.236 138.475 164.686C138.578 165.136 138.804 165.554 139.152 165.943C139.502 166.331 140.015 166.658 140.692 166.924C141.37 167.189 142.283 167.322 143.433 167.322C144.623 167.322 145.568 167.189 146.266 166.924C146.964 166.658 147.498 166.341 147.867 165.973C148.236 165.605 148.482 165.207 148.606 164.778C148.729 164.349 148.791 163.95 148.791 163.582V162.908H148.852V139.427H154.025V163.398Z" fill="#4B4B4D"/>
<path d="M128.775 166.893V171.491C126.312 171.491 124.382 171.195 122.986 170.602C121.591 170.009 120.533 169.304 119.815 168.487C119.096 167.669 118.655 166.842 118.491 166.004C118.326 165.166 118.244 164.522 118.244 164.073V162.969V143.35H114.303V138.997H118.244V130.843H123.479V138.997H128.775V143.35H123.479V162.479V163.031C123.479 163.398 123.531 163.797 123.633 164.226C123.736 164.655 123.972 165.074 124.341 165.483C124.711 165.891 125.234 166.229 125.912 166.494C126.589 166.76 127.482 166.893 128.591 166.893H128.775ZM107.159 139.059C107.857 139.059 108.462 139.048 108.976 139.028C109.489 139.007 110.033 139.038 110.608 139.12L109.438 143.596C108.945 143.596 108.535 143.606 108.206 143.626C107.877 143.647 107.487 143.656 107.036 143.656C105.927 143.656 105.034 143.8 104.357 144.086C103.679 144.372 103.156 144.709 102.787 145.097C102.417 145.486 102.181 145.895 102.078 146.324C101.975 146.753 101.924 147.151 101.924 147.519V148.071V171.491H96.6893V147.887V146.477C96.6893 146.027 96.7715 145.384 96.9357 144.546C97.0999 143.708 97.5311 142.88 98.2291 142.063C98.9268 141.245 99.9739 140.54 101.37 139.947C102.766 139.355 104.695 139.059 107.159 139.059ZM85.4806 155.244C85.3984 155.653 85.1935 155.959 84.8648 156.164C84.5364 156.368 84.2286 156.511 83.9412 156.593C83.325 156.797 82.6581 157.032 81.9395 157.298C81.221 157.564 80.5541 157.799 79.9381 158.003C79.1992 158.248 78.5012 158.494 77.8441 158.739C77.3514 158.943 76.8791 159.23 76.4276 159.597C76.0581 159.924 75.7196 160.343 75.4113 160.854C75.1034 161.365 74.9496 162.009 74.9496 162.785C74.9496 164.338 75.3192 165.493 76.0582 166.249C76.7972 167.006 78.1724 167.383 80.1845 167.383C82.2372 167.383 83.6333 166.985 84.3724 166.188C85.111 165.391 85.4806 164.257 85.4806 162.785V155.244ZM80.1845 138.997C83.7973 138.997 86.4459 139.702 88.1291 141.112C89.812 142.522 90.654 144.29 90.654 146.415V149.358V162.785V164.563C90.654 165.299 90.5206 166.106 90.2539 166.985C89.9869 167.864 89.4632 168.671 88.6832 169.406C87.9033 170.142 86.8357 170.755 85.4806 171.246C84.126 171.736 82.3603 171.981 80.1845 171.981C78.0084 171.981 76.2428 171.736 74.8882 171.246C73.5331 170.755 72.4654 170.142 71.6854 169.406C70.9056 168.671 70.3822 167.864 70.1149 166.985C69.8482 166.106 69.7148 165.299 69.7148 164.563V161.681C69.7148 160.128 70.1149 158.718 70.9159 157.451C71.7165 156.184 72.8559 155.285 74.3341 154.754C75.073 154.508 75.9143 154.222 76.859 153.895C77.8028 153.568 78.7164 153.252 79.5992 152.945C80.4821 152.638 81.2518 152.363 81.9089 152.117C82.566 151.872 82.9765 151.729 83.1405 151.688C83.3049 151.607 83.5201 151.494 83.7871 151.351C84.0538 151.208 84.3107 150.993 84.5572 150.707C84.8031 150.421 85.0192 150.094 85.2033 149.726C85.3881 149.358 85.4806 148.929 85.4806 148.439V147.274C85.4806 146.865 85.3984 146.447 85.2344 146.017C85.07 145.588 84.7829 145.189 84.3724 144.822C83.9616 144.454 83.4175 144.158 82.74 143.932C82.0629 143.708 81.2105 143.596 80.1845 143.596C78.1315 143.596 76.7457 144.014 76.0275 144.852C75.3087 145.69 74.9496 146.702 74.9496 147.887H69.7148V146.415C69.7148 145.394 69.9099 144.433 70.2997 143.534C70.6901 142.635 71.3161 141.848 72.178 141.174C73.0407 140.499 74.1284 139.968 75.4426 139.579C76.756 139.191 78.3368 138.997 80.1845 138.997ZM63.6798 171.491H58.4449V147.948V147.397C58.4449 147.029 58.3935 146.63 58.2911 146.201C58.1882 145.772 57.9624 145.363 57.6133 144.975C57.2644 144.587 56.7512 144.259 56.0739 143.994C55.3966 143.728 54.4827 143.596 53.3332 143.596C52.1834 143.596 51.2497 143.728 50.5309 143.994C49.8127 144.259 49.2583 144.576 48.8682 144.944C48.4781 145.312 48.2216 145.711 48.0985 146.14C47.9754 146.569 47.9137 146.947 47.9137 147.274V147.948V171.491H42.6789V147.948V147.397C42.6789 147.029 42.6277 146.63 42.525 146.201C42.4221 145.772 42.1963 145.363 41.8475 144.975C41.4983 144.587 40.9855 144.259 40.3076 143.994C39.6305 143.728 38.7168 143.596 37.5675 143.596C36.418 143.596 35.4836 143.728 34.7654 143.994C34.0466 144.259 33.4922 144.576 33.1024 144.944C32.712 145.312 32.4558 145.711 32.3327 146.14C32.2093 146.569 32.1479 146.947 32.1479 147.274V147.948V171.491H26.9745V147.519V146.415C26.9745 145.925 27.0567 145.271 27.2211 144.454C27.3851 143.636 27.8164 142.819 28.5144 142.002C29.2121 141.184 30.2591 140.479 31.6548 139.886C33.0512 139.294 34.9807 138.997 37.4443 138.997C39.4151 138.997 41.0264 139.191 42.2788 139.579C43.5306 139.968 44.5469 140.448 45.3271 141.02C46.1073 140.448 47.1232 139.968 48.3755 139.579C49.6279 139.191 51.2392 138.997 53.2101 138.997C55.6733 138.997 57.6033 139.294 58.999 139.886C60.3952 140.479 61.442 141.184 62.14 142.002C62.838 142.819 63.2689 143.647 63.4332 144.484C63.5973 145.322 63.6798 145.966 63.6798 146.415V147.029V171.491ZM15.7046 147.887C15.7046 146.702 15.3452 145.69 14.6266 144.852C13.9081 144.014 12.5224 143.596 10.4698 143.596C9.4431 143.596 8.59122 143.708 7.91367 143.932C7.23645 144.158 6.69247 144.454 6.28192 144.822C5.87104 145.189 5.58392 145.588 5.41956 146.017C5.25554 146.447 5.17336 146.865 5.17336 147.274V148.439C5.17336 148.929 5.26601 149.358 5.4505 149.726C5.63531 150.094 5.8509 150.421 6.0971 150.707C6.34331 150.993 6.60016 151.208 6.86682 151.351C7.13381 151.494 7.34924 151.607 7.51359 151.688C7.67761 151.729 8.08818 151.872 8.7451 152.117C9.40218 152.363 10.1721 152.638 11.0547 152.945C11.9375 153.252 12.8508 153.568 13.795 153.895C14.7396 154.222 15.5811 154.508 16.3201 154.754C17.7981 155.285 18.9378 156.184 19.7381 157.451C20.5391 158.718 20.9391 160.128 20.9391 161.681V164.563C20.9391 165.299 20.8057 166.106 20.5391 166.985C20.2721 167.864 19.7486 168.671 18.9684 169.406C18.1885 170.142 17.1209 170.755 15.7659 171.246C14.4112 171.736 12.6455 171.981 10.4698 171.981C8.29361 171.981 6.52813 171.736 5.17336 171.246C3.81843 170.755 2.7508 170.142 1.97061 169.406C1.19076 168.671 0.667565 167.864 0.400245 166.985C0.133581 166.106 0 165.299 0 164.563V162.785H5.17336C5.17336 164.257 5.54299 165.391 6.28192 166.188C7.02053 166.985 8.41671 167.383 10.4698 167.383C12.4815 167.383 13.8567 167.006 14.596 166.249C15.3349 165.493 15.7046 164.338 15.7046 162.785C15.7046 162.009 15.5607 161.365 15.2732 160.854C14.9858 160.343 14.6577 159.924 14.2881 159.597C13.8363 159.23 13.3435 158.943 12.8099 158.739C11.5781 158.289 10.4282 157.88 9.36125 157.513C8.41671 157.185 7.50312 156.869 6.6203 156.562C5.73764 156.256 5.09085 156.041 4.6803 155.919C4.26991 155.755 3.79765 155.51 3.26399 155.183C2.73066 154.856 2.21713 154.426 1.72473 153.895C1.23167 153.364 0.82112 152.72 0.492741 151.964C0.164035 151.208 0 150.339 0 149.358V146.415C0 144.29 0.8419 142.522 2.52505 141.112C4.20868 139.702 6.8565 138.997 10.4698 138.997C12.317 138.997 13.898 139.191 15.2118 139.579C16.5257 139.968 17.6133 140.499 18.476 141.174C19.338 141.848 19.9638 142.635 20.3542 143.534C20.744 144.433 20.9391 145.394 20.9391 146.415V147.887H15.7046Z" fill="#4B4B4D"/>
<path fill-rule="evenodd" clip-rule="evenodd" d="M177.472 128.635C179.42 128.635 181 130.208 181 132.147C181 134.087 179.42 135.661 177.472 135.661C175.522 135.661 173.942 134.087 173.942 132.147C173.942 130.208 175.522 128.635 177.472 128.635ZM175.973 134.086V130.236H177.686C178.033 130.236 178.294 130.271 178.473 130.339C178.653 130.409 178.797 130.53 178.903 130.705C179.011 130.88 179.062 131.074 179.062 131.286C179.062 131.56 178.974 131.79 178.797 131.977C178.62 132.165 178.347 132.283 177.974 132.334C178.111 132.399 178.213 132.462 178.284 132.525C178.432 132.662 178.575 132.834 178.708 133.037L179.381 134.086H178.738L178.227 133.284C178.077 133.055 177.952 132.877 177.854 132.755C177.758 132.632 177.673 132.546 177.596 132.498C177.52 132.449 177.443 132.414 177.362 132.395C177.304 132.383 177.211 132.377 177.079 132.377H176.484V134.086H175.973ZM176.484 131.936H177.584C177.818 131.936 178.003 131.911 178.132 131.863C178.264 131.815 178.365 131.738 178.434 131.631C178.503 131.525 178.537 131.41 178.537 131.286C178.537 131.104 178.47 130.955 178.338 130.837C178.205 130.72 177.995 130.662 177.707 130.662H176.484V131.936ZM177.472 129.117C179.151 129.117 180.515 130.474 180.515 132.147C180.515 133.822 179.151 135.179 177.472 135.179C175.789 135.179 174.425 133.822 174.425 132.147C174.425 130.474 175.789 129.117 177.472 129.117Z" fill="#4B4B4D"/>
<ellipse cx="90.5126" cy="57.8463" rx="58.1069" ry="57.8461" fill="white"/>
<path fill-rule="evenodd" clip-rule="evenodd" d="M62.5213 7.1899C53.3601 12.1888 45.7451 19.5776 40.4471 28.5319C40.8249 30.3917 41.2491 32.242 41.729 34.0782C43.6885 41.5752 46.4809 48.8323 50.0691 55.7048C59.5732 39.7459 73.1612 26.5573 89.4829 17.5712C81.0321 12.8839 71.9465 9.37775 62.5213 7.1899Z" fill="#F58634"/>
<path fill-rule="evenodd" clip-rule="evenodd" d="M117.838 6.87223C117.757 6.829 117.677 6.78658 117.595 6.74388L117.217 6.54524C116.93 6.39514 116.64 6.24984 116.35 6.10583L115.972 5.91859C115.685 5.77592 115.394 5.64015 115.103 5.50384C114.977 5.44444 114.85 5.38556 114.724 5.32696C114.431 5.19224 114.136 5.06043 113.841 4.93075C113.71 4.8732 113.579 4.81566 113.448 4.75891C113.145 4.62844 112.842 4.50087 112.537 4.37596L112.181 4.23036C111.866 4.10121 111.548 3.97843 111.23 3.85697L110.885 3.72517C110.57 3.60478 110.252 3.49049 109.934 3.37778L109.564 3.2465C109.246 3.1338 108.927 3.02799 108.606 2.9227L108.248 2.80495C107.923 2.69834 107.596 2.59837 107.269 2.49971L106.921 2.39444C106.585 2.29313 106.248 2.19925 105.91 2.10564L105.585 2.01573C105.236 1.9192 104.885 1.83116 104.534 1.74285L104.238 1.66834C103.871 1.57605 103.501 1.49304 103.132 1.4095L102.886 1.35381C102.512 1.26948 102.135 1.1939 101.759 1.11885L101.509 1.069C101.126 0.992623 100.742 0.924734 100.357 0.857375L100.133 0.818126C99.7354 0.748115 99.336 0.687116 98.9367 0.627712L98.7551 0.600934C98.3421 0.539939 97.9281 0.485568 97.5141 0.434916L97.36 0.415816C96.9321 0.363308 96.5036 0.317971 96.0747 0.27554L95.9635 0.264663C95.5313 0.221702 95.0984 0.188025 94.6657 0.155141L94.5409 0.145857C94.1037 0.112973 93.6656 0.0917587 93.2276 0.0678912L93.1228 0.0620513C92.6712 0.0379186 92.2191 0.025454 91.7672 0.0151114L91.7165 0.0140496C91.2497 0.00397221 90.7826 0 90.3158 0H90.2862C89.821 0 89.3555 0.0106088 88.8903 0.0209514L88.8377 0.0220132C88.3693 0.0318254 87.9014 0.0575388 87.4338 0.0776936L87.3984 0.0792863C83.478 0.246889 79.5872 0.910937 75.7881 1.87147L75.7657 1.87731C75.3084 1.99293 74.8541 2.1197 74.4009 2.24911L74.2882 2.2812C73.8512 2.40611 73.4153 2.53685 72.9815 2.67263L72.8538 2.71267C72.4382 2.84315 72.0234 2.97761 71.6115 3.11896L71.3995 3.1916C71.0345 3.31704 70.6704 3.44567 70.3083 3.57906L69.9231 3.72147C69.5946 3.8424 69.2683 3.96889 68.9428 4.09751C68.7868 4.1593 68.6316 4.22188 68.4759 4.28446C68.2267 4.38497 67.9787 4.48841 67.7308 4.59236C67.4901 4.69393 67.2504 4.79684 67.011 4.90133C66.8342 4.9785 66.6575 5.05673 66.4812 5.13575C66.189 5.26623 65.8992 5.40174 65.6086 5.53567L65.5929 5.54282L65.346 5.66029C65.0594 5.79872 64.7728 5.93874 64.4873 6.08009C73.752 8.39524 82.6741 11.9682 90.9767 16.6733C98.2379 12.8364 105.93 9.86734 113.889 7.8089C115.199 7.47025 116.516 7.15891 117.838 6.87223Z" fill="#A8CF45"/>
<path fill-rule="evenodd" clip-rule="evenodd" d="M38.5179 83.6017C40.8451 74.3849 44.4365 65.5094 49.1666 57.2502C45.3099 50.0274 42.3252 42.3749 40.2564 34.4589C39.916 33.1557 39.6032 31.8459 39.3145 30.5303C39.2743 30.6056 39.2337 30.6804 39.194 30.7562L38.9802 31.1596C38.8336 31.4362 38.6925 31.7157 38.5518 31.9952C38.4851 32.1278 38.4182 32.2599 38.3529 32.3927C38.2129 32.676 38.0759 32.9613 37.9404 33.2469C37.8805 33.3737 37.8202 33.5005 37.7613 33.6278C37.6258 33.9195 37.4931 34.2122 37.3627 34.5064C37.3049 34.6363 37.247 34.7665 37.1899 34.8975C37.0588 35.1982 36.9311 35.5006 36.805 35.8042C36.7567 35.9206 36.7079 36.0368 36.6602 36.1537C36.5314 36.4693 36.4061 36.7857 36.2832 37.1034L36.1507 37.4466C36.0297 37.7608 35.9151 38.0769 35.8012 38.3933C35.7575 38.5145 35.7138 38.6354 35.6708 38.7566C35.5589 39.0743 35.4501 39.3933 35.344 39.7132L35.2256 40.0696C35.1184 40.3926 35.0185 40.7185 34.9188 41.0442L34.8126 41.3908C34.7105 41.7239 34.6164 42.0591 34.5229 42.3946L34.4325 42.7186C34.3362 43.0655 34.2466 43.4145 34.1579 43.7637L34.083 44.0586C33.9902 44.4238 33.907 44.7914 33.8228 45.1584L33.7668 45.4034C33.682 45.7763 33.6063 46.1505 33.5306 46.525L33.4804 46.7732C33.4031 47.154 33.3357 47.5364 33.268 47.9185L33.2282 48.1418C33.1579 48.538 33.0973 48.9355 33.0373 49.3333L33.0099 49.5142C32.9475 49.9247 32.895 50.3369 32.843 50.749L32.8235 50.902C32.7699 51.3279 32.727 51.7546 32.6833 52.181L32.6718 52.2916C32.6273 52.7207 32.5951 53.1503 32.5617 53.5802L32.5524 53.7043C32.5193 54.1392 32.498 54.5749 32.474 55.0106L32.4681 55.1149C32.4439 55.5641 32.4314 56.0139 32.4212 56.4634L32.4199 56.5138C32.4098 56.9781 32.4058 57.4427 32.4058 57.9071V57.9365C32.4058 58.4011 32.4204 58.8658 32.4271 59.3304L32.4279 59.3826C32.4343 59.8438 32.4588 60.3052 32.4833 60.7661L32.4855 60.8011C32.6961 64.7019 33.3031 68.5734 34.2864 72.3554L34.2922 72.3771C34.4106 72.8319 34.5354 73.2849 34.6665 73.7365L34.6993 73.8487C34.826 74.2836 34.9555 74.718 35.0926 75.1497L35.1328 75.2768C35.264 75.6902 35.3992 76.1028 35.5413 76.5126L35.6143 76.7234C35.7404 77.0864 35.8697 77.449 36.0038 77.8094L36.147 78.1926C36.2688 78.519 36.3965 78.8436 36.5256 79.1677C36.5872 79.3223 36.6503 79.4764 36.7133 79.6307C36.8146 79.8787 36.9177 80.1256 37.0225 80.3725C37.1246 80.6119 37.2275 80.8506 37.3331 81.0887C37.4107 81.2646 37.4893 81.4401 37.5685 81.6154C37.7002 81.9058 37.8362 82.1946 37.9708 82.4837L37.9783 82.4993L38.0969 82.747C38.2356 83.0326 38.3758 83.3177 38.5179 83.6017Z" fill="#FFCC29"/>
<path fill-rule="evenodd" clip-rule="evenodd" d="M61.0928 107.694C62.9619 107.318 64.8225 106.896 66.6685 106.418C74.2054 104.469 81.5012 101.692 88.41 98.1224C72.3618 88.6626 59.0578 75.0587 50.0226 58.8211C45.3102 67.2416 41.8371 76.3547 39.6374 85.7357C44.6629 94.8485 52.0909 102.423 61.0928 107.694Z" fill="#91D8F7"/>
<path fill-rule="evenodd" clip-rule="evenodd" d="M116.455 109.613C107.189 107.298 98.2664 103.725 89.9633 99.0202C82.7021 102.857 75.009 105.825 67.0509 107.883C65.7413 108.222 64.4243 108.533 63.1022 108.82C63.1779 108.86 63.2537 108.9 63.3297 108.94L63.7346 109.154C64.0124 109.299 64.2932 109.439 64.5739 109.579C64.7069 109.645 64.8402 109.712 64.9738 109.777C65.2585 109.916 65.5454 110.052 65.8325 110.187C65.9605 110.247 66.0879 110.307 66.2156 110.366C66.5086 110.5 66.8032 110.632 67.0986 110.761C67.2293 110.819 67.3602 110.877 67.4919 110.933C67.7947 111.064 68.0994 111.191 68.4039 111.317C68.5204 111.365 68.6369 111.413 68.7537 111.46C69.0712 111.588 69.3901 111.713 69.7095 111.835L70.0544 111.967C70.3701 112.087 70.6882 112.201 71.0065 112.315C71.1283 112.358 71.2501 112.402 71.3717 112.445C71.6914 112.556 72.0116 112.664 72.3331 112.769L72.6914 112.887C73.0161 112.994 73.343 113.094 73.6704 113.193L74.0188 113.298C74.3545 113.399 74.6917 113.493 75.0295 113.587L75.3553 113.676C75.7037 113.773 76.0543 113.861 76.4052 113.949L76.7016 114.024C77.0687 114.116 77.4377 114.199 77.8073 114.282L78.0541 114.338C78.4284 114.422 78.8046 114.498 79.181 114.573L79.4306 114.623C79.8134 114.7 80.1979 114.767 80.5821 114.835L80.8065 114.874C81.2043 114.944 81.6034 115.005 82.0028 115.064L82.1846 115.091C82.5978 115.152 83.0116 115.206 83.4262 115.258L83.58 115.276C84.0074 115.329 84.4358 115.374 84.8648 115.417L84.9759 115.428C85.4089 115.47 85.8424 115.503 86.2762 115.537L86.4009 115.547C86.8371 115.581 87.2746 115.601 87.7118 115.625L87.8166 115.63C88.2682 115.654 88.7204 115.667 89.1723 115.677L89.2229 115.678C89.6897 115.688 90.1568 115.692 90.6236 115.692H90.6532C91.1185 115.692 91.584 115.682 92.0492 115.671L92.1017 115.67C92.5699 115.66 93.0377 115.635 93.5056 115.615L93.5411 115.613C97.4615 115.446 101.353 114.798 105.149 113.822L105.171 113.816C105.629 113.698 106.084 113.572 106.539 113.443L106.652 113.41C107.089 113.286 107.524 113.156 107.958 113.02L108.086 112.98C108.501 112.849 108.916 112.715 109.328 112.573L109.54 112.501C109.905 112.375 110.269 112.247 110.631 112.113L111.017 111.971C111.345 111.85 111.671 111.723 111.997 111.595C112.153 111.533 112.308 111.471 112.463 111.408C112.712 111.307 112.961 111.204 113.209 111.1C113.449 110.999 113.689 110.896 113.928 110.791C114.105 110.714 114.282 110.635 114.458 110.557C114.75 110.426 115.04 110.29 115.331 110.157L115.347 110.149L115.596 110.031C115.883 109.893 116.169 109.754 116.455 109.613Z" fill="#0098DA"/>
<path fill-rule="evenodd" clip-rule="evenodd" d="M91.5422 98.1685C99.9929 102.856 109.079 106.361 118.504 108.55C127.665 103.551 135.28 96.1621 140.578 87.2073C140.2 85.348 139.776 83.4977 139.296 81.6615C137.337 74.1642 134.544 66.9069 130.956 60.0347C121.452 75.9938 107.864 89.1824 91.5422 98.1685Z" fill="#7A75B5"/>
<path fill-rule="evenodd" clip-rule="evenodd" d="M131.805 58.3941C133.23 61.0773 134.486 63.8854 135.648 66.6867C137.565 71.3066 139.504 76.44 140.769 81.2806C141.094 82.5254 141.475 83.8516 141.747 85.1421C141.775 85.089 141.803 85.0358 141.832 84.9824L142.046 84.5793C142.193 84.3033 142.334 84.024 142.474 83.7448C142.54 83.6122 142.607 83.4799 142.672 83.3467C142.812 83.0632 142.949 82.7784 143.085 82.4925C143.145 82.3655 143.205 82.2388 143.265 82.1117C143.4 81.8203 143.532 81.527 143.663 81.2334C143.72 81.1032 143.778 80.973 143.835 80.8422C143.966 80.541 144.094 80.2379 144.221 79.9347C144.269 79.8191 144.318 79.7032 144.365 79.5871C144.493 79.2712 144.619 78.954 144.742 78.6361L144.875 78.2929C144.995 77.9789 145.11 77.6626 145.224 77.3459C145.268 77.225 145.312 77.1038 145.354 76.9826C145.467 76.6649 145.575 76.3464 145.681 76.0266L145.8 75.6701C145.907 75.3469 146.007 75.022 146.107 74.6966L146.212 74.3495C146.314 74.0159 146.409 73.6801 146.502 73.3441L146.593 73.0203C146.69 72.6737 146.779 72.3253 146.867 71.9765L146.942 71.6808C147.035 71.3157 147.119 70.9486 147.202 70.5813L147.258 70.3358C147.343 69.9634 147.419 69.5893 147.494 69.2145L147.545 68.9663C147.622 68.5857 147.69 68.2034 147.757 67.8209L147.797 67.5979C147.867 67.202 147.929 66.8052 147.988 66.4077L148.015 66.2269C148.076 65.8161 148.131 65.4045 148.182 64.9924L148.201 64.8391C148.254 64.4137 148.3 63.9873 148.343 63.5608L148.353 63.4505C148.396 63.0199 148.429 62.5884 148.464 62.1572L148.473 62.0331C148.508 61.599 148.528 61.1638 148.551 60.7291L148.557 60.6246C148.581 60.1757 148.594 59.7256 148.604 59.2761L148.605 59.2257C148.616 58.7616 148.62 58.297 148.62 57.8327V57.8032C148.62 57.3405 148.609 56.8772 148.598 56.4144L148.597 56.3622C148.588 55.8965 148.562 55.4311 148.541 54.9657L148.54 54.9306C148.371 51.031 147.721 47.1602 146.739 43.3844L146.733 43.3624C146.614 42.9067 146.489 42.4535 146.358 42.0014L146.326 41.8895C146.201 41.4545 146.069 41.0215 145.933 40.59L145.892 40.463C145.761 40.0493 145.626 39.6369 145.484 39.2272L145.411 39.0164C145.285 38.653 145.156 38.2905 145.021 37.9304L144.878 37.5472C144.756 37.2204 144.63 36.8959 144.5 36.5723C144.439 36.4172 144.375 36.2628 144.312 36.1085C144.211 35.8608 144.107 35.6136 144.003 35.367C143.901 35.1273 143.797 34.8886 143.692 34.6507C143.615 34.4746 143.536 34.2991 143.457 34.1243C143.326 33.8352 143.192 33.5473 143.057 33.2606L142.928 32.9925C142.789 32.7066 142.649 32.421 142.507 32.1367C140.174 41.3418 136.533 50.1455 131.805 58.3941Z" fill="#A53692"/>
<path fill-rule="evenodd" clip-rule="evenodd" d="M141.386 30.0037C136.361 20.8909 128.933 13.3162 119.931 8.04596C118.062 8.422 116.202 8.84392 114.356 9.32127C106.818 11.2705 99.5226 14.0481 92.6138 17.6173C108.657 27.071 121.916 40.5874 130.95 56.8223C135.662 48.4167 139.187 39.3789 141.386 30.0037Z" fill="#D2E28B"/>
</svg>
